<svg width="220" height="220" viewBox="0 0 220 220" fill="none" xmlns="http://www.w3.org/2000/svg">
<path d="M100.421 213.056C77.5499 210.93 56.0361 201.256 39.2676 185.558C22.4992 169.861 11.429 149.031 7.80051 126.35" stroke="#19191A"/>
<path d="M16.4401 102.437L14.2729 102.969L14.0308 106.689L16.1106 107.498L15.9869 109.398L5.36587 105.066L5.47603 103.374L16.57 100.441L16.4401 102.437ZM10.7774 105.435L12.3098 106.032L12.4803 103.413L10.8834 103.806L8.08521 104.426L10.7774 105.435Z" fill="#19191A"/>
<path d="M17.0273 96.0278L6.3802 93.7887L6.74209 92.0663C7.99051 91.4677 9.29279 90.9241 10.6489 90.4354C11.9946 89.9445 13.3626 89.5292 14.7528 89.1893L11.5448 88.6618L7.63039 87.8386L8.00873 86.0379L18.6558 88.2771L18.2939 89.9995C16.8383 90.3909 15.372 90.8074 13.895 91.2489C12.4098 91.6777 10.9929 92.17 9.64452 92.7257L13.3347 93.371L17.4056 94.2271L17.0273 96.0278Z" fill="#19191A"/>
<path d="M24.1083 72.1348L21.8864 71.929L20.4418 75.3657L22.1428 76.8105L21.405 78.5657L12.7839 70.9981L13.4411 69.4346L24.8833 70.291L24.1083 72.1348ZM17.7772 73.1163L19.0303 74.1817L20.0471 71.7627L18.4096 71.6119L15.563 71.2821L17.7772 73.1163Z" fill="#19191A"/>
<path d="M21.9128 61.5099L25.6587 63.1202L19.7241 56.8737L20.635 55.4053L28.8011 57.9335L25.7844 55.2692L22.5666 52.2918L23.5956 50.633L31.5481 58.4527L30.5106 60.1251L22.5278 57.6353L28.2923 63.7008L27.2548 65.3732L16.7213 61.7139L17.8178 59.9464L21.9128 61.5099Z" fill="#19191A"/>
<path d="M40.0217 47.4834L37.9742 46.5968L35.5325 49.4139L36.6999 51.3162L35.4528 52.755L29.6131 42.8808L30.7239 41.5992L41.3316 45.9721L40.0217 47.4834ZM33.6998 46.4472L34.5594 47.8495L36.2779 45.8666L34.7686 45.214L32.1659 44.0151L33.6998 46.4472Z" fill="#19191A"/>
<path d="M43.1929 38.4933L45.8431 41.4894L44.4056 42.7621L37.197 34.6129L39.9164 32.2052C40.7389 31.4769 41.5571 31.13 42.3709 31.1646C43.1857 31.184 43.904 31.5453 44.5259 32.2484L44.9817 32.7637C45.3916 33.2271 45.6522 33.723 45.7635 34.2513C45.8748 34.7796 45.8241 35.3018 45.6113 35.8179C47.2556 36.3566 48.7863 36.9602 50.2036 37.6287L48.5624 39.0817C47.2797 38.4366 45.9211 37.8586 44.4867 37.3478L43.1929 38.4933ZM41.0824 33.5235L39.8007 34.6584L42.0268 37.1751L43.3086 36.0402C43.66 35.729 43.8498 35.4043 43.878 35.0659C43.9071 34.7124 43.7839 34.3799 43.5083 34.0683L43.0524 33.553C42.7839 33.2494 42.476 33.0946 42.1289 33.0885C41.7826 33.0674 41.4338 33.2124 41.0824 33.5235Z" fill="#19191A"/>
<path d="M54.107 34.4726L48.0986 25.4022L51.1657 23.3686C52.2502 22.6495 53.2773 22.4036 54.2468 22.6311C55.2164 22.8586 56.0899 23.5592 56.8675 24.733L58.131 26.6405C58.9145 27.8232 59.222 28.9055 59.0536 29.8875C58.8852 30.8694 58.2587 31.7199 57.1741 32.4391L54.107 34.4726ZM52.1151 24.9468L50.7149 25.8752L54.6911 31.8777L56.0913 30.9493C56.7225 30.5308 57.0683 30.0775 57.1289 29.5894C57.1983 29.0955 56.9856 28.475 56.4908 27.728L55.2272 25.8205C54.7383 25.0824 54.253 24.6492 53.7712 24.5206C53.2983 24.3862 52.7463 24.5283 52.1151 24.9468Z" fill="#19191A"/>
<path d="M69.0106 18.1619L71.0228 21.7081L70.0673 13.1453L71.6804 12.5257L76.6606 19.4739L75.8662 15.5284L75.1008 11.2118L76.9229 10.5119L78.536 21.5473L76.6988 22.253L71.8415 15.4461L72.7707 23.762L70.9336 24.4677L64.7501 15.1878L66.6918 14.4419L69.0106 18.1619Z" fill="#19191A"/>
<path d="M88.4907 18.6477L86.6233 19.0942L84.095 8.51209L85.9623 8.06552L88.4907 18.6477Z" fill="#19191A"/>
<path d="M92.9545 17.5524L91.6198 6.75455L93.3664 6.53844C94.3375 7.52533 95.2741 8.58098 96.1762 9.70539C97.077 10.8192 97.9135 11.9786 98.6858 13.1835L98.1445 9.97776L97.6538 6.00798L99.4798 5.78204L100.815 16.5799L99.0679 16.796C98.2255 15.5459 97.356 14.2939 96.4594 13.0398C95.5721 11.7739 94.6469 10.5932 93.6839 9.49785L94.2702 13.1979L94.7806 17.3264L92.9545 17.5524Z" fill="#19191A"/>
<path d="M107.634 16.039L107.985 5.16471L109.744 5.22159C110.551 6.34691 111.313 7.53482 112.031 8.78533C112.748 10.0252 113.395 11.3001 113.972 12.6101L113.933 9.3591L114.062 5.36119L115.901 5.42065L115.55 16.295L113.791 16.2381C113.152 14.8727 112.487 13.5012 111.795 12.1234C111.114 10.7354 110.382 9.42573 109.6 8.19448L109.607 11.9407L109.473 16.0985L107.634 16.039Z" fill="#19191A"/>
<path d="M123.948 17.1949L122.048 16.9199L123.605 6.15184L125.505 6.42678L123.948 17.1949Z" fill="#19191A"/>
<path d="M128.525 17.8302L131.275 7.30347L132.978 7.7487C133.516 9.02486 133.996 10.3522 134.418 11.7306C134.844 13.0987 135.193 14.4854 135.465 15.8906L136.147 12.7117L137.158 8.84153L138.938 9.307L136.188 19.8337L134.485 19.3885C134.164 17.9155 133.819 16.4305 133.449 14.9336C133.093 13.4291 132.669 11.9899 132.179 10.6159L131.357 14.2707L130.305 18.2957L128.525 17.8302Z" fill="#19191A"/>
<path d="M149.41 24.0008C149.102 24.0436 148.621 24.042 147.969 23.9959C147.33 23.9442 146.633 23.7575 145.877 23.4358C145.023 23.0722 144.382 22.5905 143.953 21.9906C143.534 21.3949 143.309 20.7252 143.278 19.9815C143.246 19.2377 143.4 18.4683 143.738 17.6733L144.634 15.5678C144.98 14.7531 145.43 14.1042 145.983 13.621C146.541 13.1279 147.182 12.8329 147.907 12.7359C148.642 12.6431 149.451 12.7847 150.335 13.1608C150.766 13.3446 151.192 13.5838 151.612 13.8784C152.035 14.1631 152.47 14.5452 152.915 15.0245L151.713 16.3386C151.311 15.9473 150.95 15.6372 150.631 15.4083C150.325 15.1737 150 14.9833 149.656 14.837C148.891 14.5111 148.242 14.4959 147.711 14.7913C147.184 15.077 146.762 15.5928 146.444 16.3388L145.549 18.4442C145.248 19.1509 145.174 19.8032 145.325 20.4009C145.486 21.0029 145.94 21.4626 146.686 21.7802C146.911 21.8763 147.165 21.9611 147.447 22.0347C147.728 22.1082 148.007 22.1629 148.281 22.1987L149.214 20.0049L147.595 19.3154L148.253 17.7695L151.477 19.1421L149.41 24.0008Z" fill="#19191A"/>
<path d="M161.761 26.5703C161.335 27.2222 161.128 27.8514 161.14 28.4579C161.157 29.0555 161.492 29.5673 162.144 29.9934C162.411 30.1685 162.712 30.3137 163.044 30.429C163.385 30.5502 163.826 30.666 164.365 30.7765L163.951 32.4936C163.328 32.3928 162.783 32.2528 162.314 32.0736C161.854 31.9002 161.436 31.691 161.061 31.4459C160.311 30.9556 159.787 30.3833 159.488 29.7292C159.198 29.0808 159.112 28.3936 159.229 27.6675C159.347 26.9415 159.642 26.2168 160.114 25.4934L161.365 23.5778C161.838 22.8544 162.383 22.2931 163 21.8939C163.617 21.4947 164.278 21.3022 164.982 21.3165C165.701 21.3277 166.436 21.5784 167.186 22.0687C167.552 22.308 167.902 22.6007 168.237 22.9468C168.577 23.284 168.912 23.7071 169.242 24.216L167.819 25.312C167.519 24.8739 167.254 24.5286 167.024 24.2762C166.794 24.0238 166.55 23.813 166.291 23.6437C165.639 23.2177 165.036 23.1166 164.482 23.3407C163.928 23.5647 163.438 24.0027 163.012 24.6546L161.761 26.5703Z" fill="#19191A"/>
<path d="M177.47 35.5577L175.98 37.2935C175.076 38.3455 174.101 38.949 173.054 39.1039C172.014 39.2508 170.989 38.8896 169.977 38.0205C168.958 37.1444 168.443 36.181 168.431 35.1302C168.435 34.0783 168.888 33.0263 169.792 31.9744L171.282 30.2386C172.186 29.1866 173.153 28.5837 174.185 28.4299C175.225 28.283 176.255 28.6476 177.274 29.5237C178.285 30.3929 178.797 31.3528 178.808 32.4036C178.82 33.4544 178.374 34.5057 177.47 35.5577ZM175.978 34.2749C176.548 33.6113 176.846 33.0024 176.872 32.4481C176.905 31.8857 176.646 31.3681 176.096 30.8953C175.546 30.4225 174.996 30.2448 174.445 30.3622C173.901 30.4715 173.345 30.8579 172.775 31.5214L171.284 33.2572C170.714 33.9208 170.413 34.5337 170.38 35.0961C170.347 35.6585 170.605 36.1761 171.155 36.6489C171.705 37.1217 172.256 37.2994 172.806 37.182C173.357 37.0647 173.918 36.6742 174.487 36.0106L175.978 34.2749Z" fill="#19191A"/>
<path d="M177.59 44.6724L185.831 37.5689L186.979 38.9025C186.697 40.2584 186.338 41.6237 185.903 42.9984C185.477 44.3662 184.976 45.7058 184.402 47.0173L186.768 44.7876L189.798 42.176L190.999 43.5703L182.758 50.6738L181.609 49.3401C182.182 47.9453 182.741 46.5269 183.287 45.0847C183.848 43.6437 184.317 42.2185 184.694 40.8092L181.941 43.3506L178.79 46.0666L177.59 44.6724Z" fill="#19191A"/>
<path d="M189.433 57.021C190.107 58.0584 190.829 58.3269 191.598 57.8265C191.91 57.6229 192.104 57.3824 192.178 57.1051C192.258 56.8367 192.228 56.4487 192.089 55.9411L191.736 54.6055C191.311 53.0117 191.746 51.793 193.042 50.9494C193.793 50.4606 194.561 50.2917 195.347 50.4426C196.146 50.5965 196.872 51.1743 197.523 52.1759C197.796 52.5962 198.018 53.044 198.187 53.5194C198.365 53.989 198.502 54.5231 198.599 55.122L196.895 55.5245C196.786 54.9848 196.668 54.5396 196.542 54.189C196.43 53.8415 196.273 53.5113 196.069 53.1983C195.802 52.7869 195.514 52.5099 195.205 52.3674C194.911 52.228 194.571 52.2833 194.187 52.5335C193.901 52.7197 193.716 52.9544 193.633 53.2375C193.565 53.5238 193.593 53.8999 193.718 54.3659L194.071 55.7015C194.278 56.5087 194.274 57.2174 194.06 57.8275C193.861 58.4408 193.413 58.9743 192.715 59.4281C191.911 59.9518 191.092 60.1216 190.26 59.9377C189.437 59.7479 188.671 59.1076 187.961 58.0165C187.682 57.5873 187.441 57.1082 187.237 56.5791C187.048 56.0532 186.901 55.4361 186.796 54.7277L188.5 54.3251C188.611 54.9655 188.736 55.4892 188.873 55.8962C189.025 56.3062 189.212 56.6812 189.433 57.021Z" fill="#19191A"/>
<path d="M199.975 59.8134L201.622 58.9927L205.187 66.1541L203.541 66.9748L202.186 64.2535L194.095 68.2858L193.239 66.5671L201.33 62.5347L199.975 59.8134Z" fill="#19191A"/>
<path d="M201.548 75.2594L197.772 76.5801L197.139 74.7676L207.408 71.1753L208.607 74.6039C208.969 75.6411 208.98 76.5299 208.64 77.2704C208.314 78.0174 207.707 78.5459 206.821 78.8558L206.172 79.083C205.588 79.2873 205.031 79.341 204.5 79.2442C203.969 79.1475 203.505 78.9029 203.108 78.5107C201.987 79.8295 200.849 81.0186 199.693 82.0781L198.97 80.0088C200.053 79.0651 201.102 78.0257 202.118 76.8907L201.548 75.2594ZM206.945 75.185L206.381 73.5689L203.209 74.6783L203.774 76.2944C203.929 76.7375 204.157 77.0361 204.46 77.1902C204.776 77.3509 205.13 77.3625 205.523 77.2252L206.172 76.998C206.555 76.8642 206.815 76.6377 206.952 76.3185C207.102 76.0059 207.1 75.6281 206.945 75.185Z" fill="#19191A"/>
<path d="M211.772 84.5801L212.152 86.5112L205.307 87.8567C204.616 87.9925 204.101 88.2512 203.763 88.6329C203.436 89.0126 203.337 89.5374 203.469 90.2072C203.601 90.8771 203.89 91.3257 204.337 91.5532C204.794 91.7785 205.368 91.8233 206.059 91.6875L212.904 90.342L213.283 92.2731L206.438 93.6186C205.234 93.8552 204.204 93.7263 203.346 93.2318C202.498 92.7353 201.948 91.8434 201.695 90.5559C201.44 89.2581 201.611 88.2189 202.208 87.4385C202.817 86.6665 203.724 86.1622 204.927 85.9256L211.772 84.5801Z" fill="#19191A"/>
<path d="M207.849 101.55C207.071 101.599 206.443 101.809 205.964 102.18C205.495 102.552 205.285 103.126 205.333 103.903C205.353 104.222 205.416 104.55 205.523 104.885C205.63 105.231 205.8 105.653 206.034 106.152L204.41 106.846C204.119 106.287 203.905 105.766 203.768 105.283C203.632 104.81 203.55 104.35 203.522 103.903C203.466 103.009 203.612 102.246 203.957 101.616C204.303 100.996 204.803 100.516 205.455 100.176C206.107 99.8364 206.864 99.6398 207.727 99.5863L210.01 99.4445C210.873 99.391 211.648 99.4924 212.338 99.7489C213.027 100.005 213.576 100.42 213.986 100.993C214.407 101.576 214.645 102.315 214.7 103.209C214.727 103.646 214.702 104.101 214.625 104.576C214.558 105.051 214.42 105.572 214.209 106.141L212.48 105.655C212.652 105.153 212.77 104.734 212.835 104.399C212.899 104.064 212.922 103.742 212.903 103.433C212.855 102.656 212.575 102.112 212.064 101.802C211.553 101.491 210.909 101.36 210.132 101.409L207.849 101.55Z" fill="#19191A"/>
<path d="M213.037 110.898L214.874 111L214.435 118.987L212.597 118.886L212.765 115.851L203.738 115.353L203.844 113.436L212.87 113.934L213.037 110.898Z" fill="#19191A"/>
<path d="M202.822 124.242L203.101 122.342L213.865 123.925L213.586 125.825L202.822 124.242Z" fill="#19191A"/>
<path d="M206.614 137.895L204.399 137.322C203.056 136.974 202.084 136.365 201.484 135.493C200.893 134.624 200.764 133.544 201.098 132.253C201.435 130.952 202.072 130.065 203.009 129.591C203.955 129.131 205.099 129.074 206.441 129.421L208.656 129.995C209.999 130.342 210.966 130.945 211.56 131.804C212.15 132.673 212.277 133.758 211.941 135.059C211.607 136.35 210.972 137.232 210.034 137.706C209.096 138.179 207.956 138.242 206.614 137.895ZM207.106 135.99C207.953 136.209 208.631 136.208 209.14 135.987C209.659 135.769 210.009 135.308 210.191 134.606C210.372 133.904 210.289 133.331 209.941 132.889C209.603 132.449 209.01 132.119 208.164 131.9L205.948 131.327C205.102 131.108 204.419 131.107 203.9 131.326C203.38 131.544 203.03 132.004 202.849 132.706C202.667 133.408 202.75 133.981 203.099 134.424C203.447 134.866 204.044 135.197 204.891 135.416L207.106 135.99Z" fill="#19191A"/>
<path d="M198.491 142.008L208.491 146.294L207.798 147.912C206.457 148.254 205.073 148.531 203.648 148.744C202.232 148.961 200.809 149.1 199.379 149.161L202.421 150.308L206.098 151.883L205.374 153.575L195.373 149.289L196.066 147.671C197.57 147.573 199.09 147.452 200.624 147.309C202.165 147.18 203.651 146.976 205.082 146.696L201.59 145.338L197.766 143.7L198.491 142.008Z" fill="#19191A"/>
<path d="M192.864 162.85C192.217 162.416 191.591 162.201 190.984 162.206C190.387 162.216 189.871 162.544 189.438 163.191C189.26 163.457 189.111 163.755 188.992 164.086C188.867 164.426 188.746 164.865 188.629 165.404L186.917 164.968C187.026 164.347 187.172 163.803 187.357 163.336C187.535 162.878 187.749 162.463 187.999 162.091C188.498 161.347 189.076 160.829 189.733 160.538C190.385 160.255 191.072 160.178 191.797 160.304C192.521 160.43 193.242 160.734 193.96 161.215L195.86 162.49C196.577 162.971 197.132 163.523 197.523 164.146C197.915 164.768 198.1 165.432 198.077 166.136C198.058 166.855 197.798 167.586 197.299 168.331C197.056 168.694 196.759 169.041 196.409 169.371C196.068 169.708 195.642 170.038 195.129 170.362L194.05 168.925C194.492 168.631 194.84 168.37 195.095 168.143C195.35 167.915 195.563 167.673 195.736 167.416C196.169 166.77 196.277 166.168 196.06 165.611C195.842 165.054 195.41 164.559 194.764 164.125L192.864 162.85Z" fill="#19191A"/>
<path d="M183.694 178.465L181.976 176.953C180.936 176.037 180.344 175.054 180.202 174.005C180.067 172.962 180.44 171.941 181.321 170.94C182.209 169.931 183.178 169.426 184.228 169.428C185.279 169.444 186.325 169.91 187.366 170.826L189.083 172.338C190.124 173.255 190.715 174.23 190.857 175.264C190.991 176.306 190.614 177.332 189.727 178.341C188.846 179.342 187.88 179.842 186.83 179.841C185.78 179.84 184.734 179.381 183.694 178.465ZM184.993 176.987C185.65 177.565 186.255 177.871 186.809 177.904C187.37 177.943 187.891 177.691 188.37 177.146C188.849 176.602 189.033 176.053 188.922 175.501C188.819 174.956 188.44 174.394 187.783 173.816L186.066 172.304C185.41 171.726 184.801 171.417 184.239 171.377C183.677 171.337 183.157 171.59 182.678 172.134C182.199 172.679 182.015 173.227 182.125 173.78C182.236 174.332 182.62 174.897 183.276 175.475L184.993 176.987Z" fill="#19191A"/>
<path d="M179.837 188.354L172.783 184.505L175.136 192.185L173.512 193.509L166.642 185.072L168.068 183.91L170.695 187.136L172.913 190.24L170.786 183.346L172.113 182.264L178.393 185.795L175.792 182.981L173.166 179.755L174.592 178.593L181.462 187.029L179.837 188.354Z" fill="#19191A"/>
<path d="M160.787 189.185L166.301 198.564L163.212 200.382C162.228 200.96 161.346 201.145 160.567 200.935C159.779 200.731 159.142 200.214 158.655 199.387L158.225 198.656C157.739 197.828 157.595 197.016 157.794 196.218C157.99 195.434 158.579 194.753 159.563 194.175L160.997 193.331L159.132 190.158L160.787 189.185ZM162.279 198.795L163.713 197.952L161.929 194.917L160.495 195.761C160.091 195.999 159.842 196.281 159.75 196.608C159.648 196.94 159.705 197.29 159.921 197.658L160.351 198.389C160.562 198.748 160.837 198.963 161.177 199.036C161.507 199.113 161.875 199.033 162.279 198.795Z" fill="#19191A"/>
<path d="M145.793 196.954L147.252 198.642L150.676 197.166L150.451 194.945L152.199 194.192L153.169 205.622L151.611 206.293L143.957 197.746L145.793 196.954ZM151.037 200.634L150.872 198.998L148.463 200.037L149.539 201.28L151.362 203.491L151.037 200.634Z" fill="#19191A"/>
<path d="M139.784 199.354L142.615 209.859L140.916 210.317C139.816 209.476 138.742 208.561 137.691 207.574C136.644 206.597 135.653 205.566 134.72 204.481L135.704 207.58L136.745 211.442L134.968 211.921L132.138 201.416L133.837 200.958C134.846 202.078 135.882 203.196 136.945 204.312C138 205.442 139.081 206.481 140.188 207.431L139.09 203.849L138.008 199.833L139.784 199.354Z" fill="#19191A"/>
<path d="M119.963 214.474L122.446 207.595L121.897 203.262L123.801 203.02L124.346 207.322L128.502 213.391L126.47 213.649L123.554 209.341L121.931 214.224L119.963 214.474Z" fill="#19191A"/>
</svg>
