<svg width="1388" height="295" viewBox="0 0 1388 295" fill="none" xmlns="http://www.w3.org/2000/svg">
<path d="M102.198 295C74.5927 295 51.6863 288.836 33.4786 276.507C15.2709 264.179 4.11141 245.54 0 220.59L42.2888 210.463C44.6382 222.498 48.6027 232.037 54.1825 239.082C59.7623 246.127 66.6636 251.117 74.8864 254.052C83.4029 256.988 92.5067 258.455 102.198 258.455C116.588 258.455 127.601 255.667 135.236 250.09C143.165 244.512 147.13 237.321 147.13 228.515C147.13 219.709 143.459 213.251 136.117 209.142C128.775 205.032 117.909 201.657 103.519 199.015L88.5421 196.373C73.8585 193.731 60.4965 189.915 48.4559 184.925C36.4153 179.935 26.871 173.037 19.8229 164.231C12.7747 155.425 9.25067 144.124 9.25067 130.328C9.25067 109.781 16.8861 93.9304 32.1571 82.7761C47.428 71.3284 67.6914 65.6045 92.9472 65.6045C117.322 65.6045 137.292 71.1816 152.856 82.3358C168.715 93.1965 178.993 108.02 183.692 126.806L141.403 138.694C138.76 125.485 133.18 116.239 124.664 110.955C116.147 105.378 105.575 102.59 92.9472 102.59C80.613 102.59 70.9218 104.938 63.8737 109.634C56.8256 114.037 53.3015 120.348 53.3015 128.567C53.3015 137.373 56.6787 143.831 63.4332 147.94C70.4813 152.05 79.8788 155.132 91.6257 157.187L107.043 159.828C122.608 162.47 136.851 166.139 149.773 170.836C162.694 175.532 172.826 182.284 180.168 191.09C187.803 199.896 191.621 211.637 191.621 226.313C191.621 248.035 183.545 264.913 167.393 276.948C151.241 288.983 129.509 295 102.198 295Z" fill="#FF602F"/>
<path d="M294.986 288.836C281.77 288.836 271.198 284.873 263.269 276.948C255.634 269.022 251.816 258.455 251.816 245.246V110.075H191.907V71.7687H251.816V0H297.188V71.7687H361.943V110.075H297.188V237.321C297.188 246.127 301.3 250.53 309.522 250.53H354.895V288.836H294.986Z" fill="#FF602F"/>
<path d="M388.817 288.836V71.7687H433.309V97.306H440.357C443.881 88.2065 449.461 81.602 457.096 77.4925C465.025 73.0895 474.716 70.8881 486.17 70.8881H512.16V111.836H484.408C469.724 111.836 457.683 115.945 448.286 124.164C438.888 132.09 434.19 144.418 434.19 161.149V288.836H388.817Z" fill="#FF602F"/>
<path d="M615.996 292.799C599.55 292.799 584.866 289.129 571.945 281.791C559.023 274.453 548.892 264.032 541.55 250.53C534.208 237.027 530.537 220.883 530.537 202.097V71.7687H575.909V199.015C575.909 217.801 580.608 231.744 590.006 240.843C599.403 249.649 612.472 254.052 629.211 254.052C647.712 254.052 662.543 247.888 673.702 235.56C685.155 222.938 690.882 204.886 690.882 181.403V71.7687H736.254V288.836H691.763V256.254H684.715C680.604 265.06 673.262 273.425 662.69 281.351C652.117 288.983 636.553 292.799 615.996 292.799Z" fill="#FF602F"/>
<path d="M877.771 295C856.92 295 837.979 290.597 820.946 281.791C804.206 272.985 790.844 260.216 780.859 243.485C771.168 226.754 766.323 206.647 766.323 183.164V177.44C766.323 153.958 771.168 133.998 780.859 117.56C790.844 100.828 804.206 88.0597 820.946 79.2537C837.979 70.1542 856.92 65.6045 877.771 65.6045C898.622 65.6045 916.389 69.4204 931.073 77.0522C945.756 84.6841 957.503 94.8109 966.313 107.433C975.417 120.055 981.29 133.998 983.934 149.261L939.883 158.507C938.414 148.821 935.331 140.015 930.632 132.09C925.933 124.164 919.326 117.853 910.809 113.157C902.293 108.46 891.574 106.112 878.652 106.112C866.024 106.112 854.571 109.047 844.293 114.918C834.308 120.495 826.378 128.714 820.505 139.575C814.632 150.142 811.695 163.057 811.695 178.321V182.284C811.695 197.547 814.632 210.609 820.505 221.47C826.378 232.331 834.308 240.55 844.293 246.127C854.571 251.704 866.024 254.493 878.652 254.493C897.741 254.493 912.278 249.649 922.262 239.963C932.247 229.983 938.561 217.361 941.204 202.097L985.255 212.224C981.731 227.194 975.417 240.99 966.313 253.612C957.503 266.234 945.756 276.361 931.073 283.993C916.389 291.331 898.622 295 877.771 295Z" fill="#FF602F"/>
<path d="M1084.48 288.836C1071.26 288.836 1060.69 284.873 1052.76 276.948C1045.12 269.022 1041.31 258.455 1041.31 245.246V110.075H981.397V71.7687H1041.31V0H1086.68V71.7687H1151.43V110.075H1086.68V237.321C1086.68 246.127 1090.79 250.53 1099.01 250.53H1144.39V288.836H1084.48Z" fill="#FF602F"/>
<path d="M1245.28 295C1229.71 295 1215.76 292.358 1203.43 287.075C1191.39 281.791 1181.7 274.012 1174.35 263.739C1167.31 253.465 1163.78 240.99 1163.78 226.313C1163.78 211.343 1167.31 199.015 1174.35 189.328C1181.7 179.348 1191.53 171.863 1203.87 166.873C1216.5 161.883 1230.74 159.388 1246.6 159.388H1312.67V145.299C1312.67 132.677 1308.86 122.55 1301.22 114.918C1293.58 107.286 1281.84 103.47 1265.98 103.47C1250.41 103.47 1238.52 107.139 1230.3 114.478C1222.08 121.816 1216.64 131.356 1214 143.097L1171.71 129.448C1175.23 117.706 1180.81 107.139 1188.45 97.7463C1196.38 88.0597 1206.8 80.2811 1219.73 74.4104C1232.65 68.5398 1248.21 65.6045 1266.42 65.6045C1294.61 65.6045 1316.78 72.796 1332.94 87.1791C1349.09 101.562 1357.16 121.963 1357.16 148.381V237.761C1357.16 246.567 1361.28 250.97 1369.5 250.97H1388V288.836H1354.08C1343.8 288.836 1335.43 286.194 1328.97 280.91C1322.51 275.627 1319.28 268.435 1319.28 259.336V258.015H1312.67C1310.32 262.418 1306.8 267.555 1302.1 273.425C1297.4 279.296 1290.5 284.433 1281.4 288.836C1272.29 292.945 1260.25 295 1245.28 295ZM1251.88 257.575C1270.09 257.575 1284.77 252.438 1295.93 242.164C1307.09 231.597 1312.67 217.214 1312.67 199.015V194.612H1249.24C1237.2 194.612 1227.51 197.254 1220.17 202.537C1212.82 207.527 1209.15 215.012 1209.15 224.993C1209.15 234.973 1212.97 242.898 1220.61 248.769C1228.24 254.639 1238.67 257.575 1251.88 257.575Z" fill="#FF602F"/>
</svg>
