<svg width="146" height="32" viewBox="0 0 146 32" fill="none" xmlns="http://www.w3.org/2000/svg">
<path d="M18.2705 13.333H28L15.9883 31.9997H6.25879L18.2705 13.333Z" fill="#FF602F"/>
<path d="M12.0117 0H21.7412L9.72949 18.6667H0L12.0117 0Z" fill="#FF602F"/>
<path d="M45.452 28.476C43.3213 28.476 41.5533 28 40.148 27.048C38.7427 26.096 37.8813 24.6567 37.564 22.73L40.828 21.948C41.0093 22.8773 41.3153 23.614 41.746 24.158C42.1767 24.702 42.7093 25.0873 43.344 25.314C44.0013 25.5407 44.704 25.654 45.452 25.654C46.5627 25.654 47.4127 25.4387 48.002 25.008C48.614 24.5773 48.92 24.022 48.92 23.342C48.92 22.662 48.6367 22.1633 48.07 21.846C47.5033 21.5287 46.6647 21.268 45.554 21.064L44.398 20.86C43.2647 20.656 42.2333 20.3613 41.304 19.976C40.3747 19.5907 39.638 19.058 39.094 18.378C38.55 17.698 38.278 16.8253 38.278 15.76C38.278 14.1733 38.8673 12.9493 40.046 12.088C41.2247 11.204 42.7887 10.762 44.738 10.762C46.6193 10.762 48.1607 11.1927 49.362 12.054C50.586 12.8927 51.3793 14.0373 51.742 15.488L48.478 16.406C48.274 15.386 47.8433 14.672 47.186 14.264C46.5287 13.8333 45.7127 13.618 44.738 13.618C43.786 13.618 43.038 13.7993 42.494 14.162C41.95 14.502 41.678 14.9893 41.678 15.624C41.678 16.304 41.9387 16.8027 42.46 17.12C43.004 17.4373 43.7293 17.6753 44.636 17.834L45.826 18.038C47.0273 18.242 48.1267 18.5253 49.124 18.888C50.1213 19.2507 50.9033 19.772 51.47 20.452C52.0593 21.132 52.354 22.0387 52.354 23.172C52.354 24.8493 51.7307 26.1527 50.484 27.082C49.2373 28.0113 47.56 28.476 45.452 28.476ZM60.332 28C59.312 28 58.496 27.694 57.884 27.082C57.2947 26.47 57 25.654 57 24.634V14.196H52.376V11.238H57V5.696H60.502V11.238H65.5V14.196H60.502V24.022C60.502 24.702 60.8194 25.042 61.454 25.042H64.956V28H60.332ZM67.5743 28V11.238H71.0083V13.21H71.5523C71.8243 12.5073 72.255 11.9973 72.8443 11.68C73.4563 11.34 74.2043 11.17 75.0883 11.17H77.0943V14.332H74.9523C73.819 14.332 72.8896 14.6493 72.1643 15.284C71.439 15.896 71.0763 16.848 71.0763 18.14V28H67.5743ZM85.1088 28.306C83.8394 28.306 82.7061 28.0227 81.7088 27.456C80.7114 26.8893 79.9294 26.0847 79.3628 25.042C78.7961 23.9993 78.5128 22.7527 78.5128 21.302V11.238H82.0148V21.064C82.0148 22.5147 82.3774 23.5913 83.1028 24.294C83.8281 24.974 84.8368 25.314 86.1288 25.314C87.5568 25.314 88.7014 24.838 89.5628 23.886C90.4468 22.9113 90.8888 21.5173 90.8888 19.704V11.238H94.3908V28H90.9568V25.484H90.4128C90.0954 26.164 89.5288 26.81 88.7128 27.422C87.8968 28.0113 86.6954 28.306 85.1088 28.306ZM105.314 28.476C103.704 28.476 102.242 28.136 100.928 27.456C99.6355 26.776 98.6042 25.79 97.8335 24.498C97.0855 23.206 96.7115 21.6533 96.7115 19.84V19.398C96.7115 17.5847 97.0855 16.0433 97.8335 14.774C98.6042 13.482 99.6355 12.496 100.928 11.816C102.242 11.1133 103.704 10.762 105.314 10.762C106.923 10.762 108.294 11.0567 109.428 11.646C110.561 12.2353 111.468 13.0173 112.148 13.992C112.85 14.9667 113.304 16.0433 113.508 17.222L110.108 17.936C109.994 17.188 109.756 16.508 109.394 15.896C109.031 15.284 108.521 14.7967 107.864 14.434C107.206 14.0713 106.379 13.89 105.382 13.89C104.407 13.89 103.523 14.1167 102.73 14.57C101.959 15.0007 101.347 15.6353 100.894 16.474C100.44 17.29 100.214 18.2873 100.214 19.466V19.772C100.214 20.9507 100.44 21.9593 100.894 22.798C101.347 23.6367 101.959 24.2713 102.73 24.702C103.523 25.1327 104.407 25.348 105.382 25.348C106.855 25.348 107.977 24.974 108.748 24.226C109.518 23.4553 110.006 22.4807 110.21 21.302L113.61 22.084C113.338 23.24 112.85 24.3053 112.148 25.28C111.468 26.2547 110.561 27.0367 109.428 27.626C108.294 28.1927 106.923 28.476 105.314 28.476ZM121.268 28C120.248 28 119.432 27.694 118.82 27.082C118.23 26.47 117.936 25.654 117.936 24.634V14.196H113.312V11.238H117.936V5.696H121.438V11.238H126.436V14.196H121.438V24.022C121.438 24.702 121.755 25.042 122.39 25.042H125.892V28H121.268ZM133.679 28.476C132.477 28.476 131.401 28.272 130.449 27.864C129.519 27.456 128.771 26.8553 128.205 26.062C127.661 25.2687 127.389 24.3053 127.389 23.172C127.389 22.016 127.661 21.064 128.205 20.316C128.771 19.5453 129.531 18.9673 130.483 18.582C131.457 18.1967 132.557 18.004 133.781 18.004H138.881V16.916C138.881 15.9413 138.586 15.1593 137.997 14.57C137.407 13.9807 136.501 13.686 135.277 13.686C134.075 13.686 133.157 13.9693 132.523 14.536C131.888 15.1027 131.469 15.8393 131.265 16.746L128.001 15.692C128.273 14.7853 128.703 13.9693 129.293 13.244C129.905 12.496 130.709 11.8953 131.707 11.442C132.704 10.9887 133.905 10.762 135.311 10.762C137.487 10.762 139.198 11.3173 140.445 12.428C141.691 13.5387 142.315 15.114 142.315 17.154V24.056C142.315 24.736 142.632 25.076 143.267 25.076H144.695V28H142.077C141.283 28 140.637 27.796 140.139 27.388C139.64 26.98 139.391 26.4247 139.391 25.722V25.62H138.881C138.699 25.96 138.427 26.3567 138.065 26.81C137.702 27.2633 137.169 27.66 136.467 28C135.764 28.3173 134.835 28.476 133.679 28.476ZM134.189 25.586C135.594 25.586 136.727 25.1893 137.589 24.396C138.45 23.58 138.881 22.4693 138.881 21.064V20.724H133.985C133.055 20.724 132.307 20.928 131.741 21.336C131.174 21.7213 130.891 22.2993 130.891 23.07C130.891 23.8407 131.185 24.4527 131.775 24.906C132.364 25.3593 133.169 25.586 134.189 25.586Z" fill="#19191A"/>
</svg>
