<svg width="80" height="58" viewBox="0 0 80 58" fill="none" xmlns="http://www.w3.org/2000/svg">
<g clip-path="url(#clip0_7714_120)">
<path d="M16.25 57.75C16.1316 57.7487 16.014 57.7319 15.9 57.7C15.6404 57.6243 15.4123 57.4664 15.25 57.25C15.0877 57.0336 15 56.7705 15 56.5L15 32.2062H1.25C0.918479 32.2062 0.600537 32.0746 0.366117 31.8401C0.131696 31.6057 0 31.2878 0 30.9562L0 1.5C0 1.16848 0.131696 0.850537 0.366117 0.616117C0.600537 0.381696 0.918479 0.25 1.25 0.25L32.5 0.25C32.8315 0.25 33.1495 0.381696 33.3839 0.616117C33.6183 0.850537 33.75 1.16848 33.75 1.5L33.75 30.9312C33.7501 31.168 33.6829 31.3999 33.5563 31.6L17.3063 57.1687C17.1935 57.3468 17.0375 57.4935 16.8528 57.5951C16.6682 57.6968 16.4608 57.75 16.25 57.75ZM2.5 29.6812L16.25 29.6812C16.5815 29.6812 16.8995 29.8129 17.1339 30.0474C17.3683 30.2818 17.5 30.5997 17.5 30.9312L17.5 52.1812L31.25 30.5625L31.25 2.75L2.5 2.75L2.5 29.6812Z" fill="#FF602F"/>
<path d="M2.5 29.6812L16.25 29.6812C16.5815 29.6812 16.8995 29.8129 17.1339 30.0474C17.3683 30.2818 17.5 30.5997 17.5 30.9312L17.5 52.1812L31.25 30.5625L31.25 2.75L2.5 2.75L2.5 29.6812Z" fill="#FF602F"/>
<path d="M62.5 57.75C62.3816 57.7487 62.264 57.7319 62.15 57.7C61.8904 57.6243 61.6623 57.4664 61.5 57.25C61.3377 57.0336 61.25 56.7705 61.25 56.5L61.25 32.2062H47.5C47.1685 32.2062 46.8505 32.0746 46.6161 31.8401C46.3817 31.6057 46.25 31.2878 46.25 30.9562L46.25 1.5C46.25 1.16848 46.3817 0.850537 46.6161 0.616117C46.8505 0.381696 47.1685 0.25 47.5 0.25L78.75 0.25C79.0815 0.25 79.3995 0.381696 79.6339 0.616117C79.8683 0.850537 80 1.16848 80 1.5V30.9312C80.0001 31.168 79.9329 31.3999 79.8063 31.6L63.5563 57.1687C63.4435 57.3468 63.2875 57.4935 63.1028 57.5951C62.9182 57.6968 62.7108 57.75 62.5 57.75ZM48.75 29.6812L62.5 29.6812C62.8315 29.6812 63.1495 29.8129 63.3839 30.0474C63.6183 30.2818 63.75 30.5997 63.75 30.9312L63.75 52.1812L77.5 30.5625V2.75L48.75 2.75V29.6812Z" fill="#FF602F"/>
<path d="M48.75 29.6812L62.5 29.6812C62.8315 29.6812 63.1495 29.8129 63.3839 30.0474C63.6183 30.2818 63.75 30.5997 63.75 30.9312L63.75 52.1812L77.5 30.5625V2.75L48.75 2.75V29.6812Z" fill="#FF602F"/>
</g>
<defs>
<clipPath id="clip0_7714_120">
<rect width="80" height="58" fill="white"/>
</clipPath>
</defs>
</svg>
