<svg width="90" height="90" viewBox="0 0 90 90" fill="none" xmlns="http://www.w3.org/2000/svg">
<path d="M17.6399 42.48L28.2599 64.44C28.2599 64.62 28.4399 64.8 28.6199 64.8C30.9599 66.24 39.0599 70.92 39.4199 71.1C39.5999 71.28 39.7799 71.28 40.1399 71.1C40.4999 70.92 46.2599 67.5 48.5999 66.24V71.82C45.1799 74.16 42.4799 78.84 42.4799 82.8C42.4799 87.3 45.8999 89.46 49.8599 87.12C53.6399 84.96 56.5199 79.92 56.3399 75.78C56.3399 75.24 55.9799 74.88 55.4399 74.88C54.8999 74.88 54.5399 75.24 54.5399 75.78C54.5399 79.38 52.0199 83.7 48.9599 85.5C46.2599 87.12 44.2799 86.04 44.2799 82.8C44.2799 79.2 46.7999 74.88 49.8599 73.08C50.2199 72.9 50.3999 72.54 50.3999 72.36V65.16L61.3799 58.86C61.5599 58.68 61.7399 58.5 61.7399 58.32C65.3399 46.44 68.2199 37.08 72.1799 24.12C72.1799 23.94 72.1799 23.58 71.9999 23.4C71.8199 23.22 61.3799 8.63997 61.3799 8.45997C61.3799 8.27997 61.1999 8.27997 61.1999 8.27997L50.5799 1.97997C50.3999 1.79997 50.0399 1.79997 49.6799 1.97997L46.2599 3.95997C45.8999 4.13997 45.7199 4.67997 45.8999 5.21997C46.2599 5.57997 46.7999 5.75997 47.1599 5.39997L50.2199 3.59997L59.0399 8.99997L39.5999 20.16C39.4199 19.98 30.0599 14.58 30.7799 14.94L37.7999 10.8C38.1599 10.62 38.3399 10.08 38.1599 9.53997C37.9799 9.17997 37.4399 8.99997 36.8999 9.17997L28.4399 14.04C28.2599 14.04 28.0799 14.4 28.0799 14.58C16.7399 44.1 17.6399 41.58 17.6399 41.94V42.48ZM29.5199 16.2C30.0599 16.56 39.2399 21.78 38.6999 21.42C34.3799 32.58 32.2199 37.98 28.7999 46.8C28.2599 46.44 19.0799 41.22 19.6199 41.58L29.5199 16.2ZM70.3799 23.76L35.6399 59.4C35.4599 59.22 32.2199 52.38 32.3999 52.56L66.5999 18.36L70.3799 23.76ZM64.6199 43.02L39.7799 68.04L36.3599 61.2L69.4799 27.18L64.6199 43.02ZM40.4999 21.78L58.3199 11.52L35.6399 34.02L40.4999 21.78ZM31.4999 50.94L30.2399 48.24C30.2399 48.06 34.3799 37.8 34.1999 38.16L61.1999 10.98L65.3399 16.92L31.4999 50.94ZM29.8799 63.54L20.6999 44.46C20.8799 44.64 29.1599 49.32 28.6199 49.14L37.7999 68.04L29.8799 63.54ZM60.2999 57.6L42.6599 67.86L63.5399 46.8L60.2999 57.6Z" fill="#FF602F"/>
<path d="M41.2198 8.81996L44.4598 7.01996C44.8198 6.83996 44.9998 6.29996 44.8198 5.75996C44.4598 5.39996 43.9198 5.21996 43.5598 5.39996L40.3198 7.19996C39.9598 7.37996 39.7798 7.91996 39.9598 8.45996C40.3198 8.99996 40.8598 9.17996 41.2198 8.81996Z" fill="#FF602F"/>
</svg>
