<svg width="100" height="100" viewBox="0 0 100 100" fill="none" xmlns="http://www.w3.org/2000/svg">
<path d="M64.7093 86.9057L68.4276 84.7444C68.8781 84.4827 69.031 83.9051 68.7684 83.4546C68.5049 83.0041 67.9273 82.8502 67.4786 83.1137L63.7603 85.275C63.3098 85.5367 63.1569 86.1143 63.4195 86.5648C63.6808 87.0146 64.2576 87.1678 64.7093 86.9057Z" fill="#FF602F"/>
<path d="M32.4396 15.4703C31.9181 15.4703 31.4962 15.8922 31.4962 16.4137V48.8643L23.3532 53.5966L23.3483 53.5995C23.124 53.73 22.8799 54.2218 22.8794 54.4112L22.79 79.1468C22.7891 79.4849 22.9688 79.7981 23.2617 79.9676L49.569 95.1569C49.8613 95.3252 50.2206 95.3248 50.5106 95.1578C55.4498 92.2874 60.3231 89.4552 60.0809 89.596C60.5305 89.3343 60.6843 88.7567 60.4218 88.3062C60.1601 87.8548 59.5806 87.7037 59.132 87.9653L50.9901 92.6968C51.0359 80.0379 51.0258 82.8421 51.0717 70.1471C53.2752 68.8665 72.2567 57.8352 75.3171 56.0566L75.2351 78.6069L71.5592 80.7434C71.1087 81.005 70.9558 81.5826 71.2183 82.0332C71.479 82.4827 72.0558 82.6338 72.5081 82.374L76.6511 79.9658C76.9404 79.7981 77.1192 79.4886 77.1201 79.1541C77.1281 76.9191 77.2088 54.1373 77.2094 54.413C77.209 54.2226 77.0557 53.781 76.7377 53.5968L68.5927 48.8943V16.0949C68.5927 15.5735 68.1707 15.1515 67.6493 15.1515C67.1278 15.1515 66.7059 15.5735 66.7059 16.0949V24.3433L50.9445 15.2432V5.66044C50.9445 5.13899 50.5226 4.71704 50.0011 4.71704C49.4797 4.71704 49.0577 5.13899 49.0577 5.66044V15.2473L33.383 24.3575V16.4137C33.383 15.8922 32.961 15.4703 32.4396 15.4703ZM33.383 40.3763L39.7631 44.0598L33.383 47.7678V40.3763ZM49.0577 47.2478L43.5271 44.0544L49.0577 40.8402C49.0577 41.2674 49.0577 47.4687 49.0577 47.2478ZM50.9445 40.8836L56.5502 44.1202L50.9445 47.3777C50.9445 46.8051 50.9445 40.5467 50.9445 40.8836ZM50.9445 38.7052V36.7755L56.6153 33.4803L65.7671 38.7641L58.4308 43.0273L50.9445 38.7052ZM50.9445 34.594V30.2061L54.732 32.3929L50.9445 34.594ZM49.0577 34.4641L45.3893 32.3459L49.0577 30.214V34.4641ZM49.0577 36.6425V38.6582L41.6437 42.967L34.3549 38.7585L43.5088 33.4388L49.0577 36.6425ZM24.7607 56.0459L49.1847 70.1468C49.1649 75.6154 49.1213 87.6246 49.1029 92.709L24.6787 78.6069L24.7607 56.0459ZM74.3839 54.4167C70.4059 56.7286 59.6474 62.981 50.1287 68.5128L25.7051 54.4121L31.4962 51.0464V54.9253C31.4962 55.4467 31.9181 55.8686 32.4396 55.8686C32.961 55.8686 33.383 55.4467 33.383 54.9253V49.9499L41.6466 45.1473L49.0577 49.4262V65.3597C49.0577 65.8812 49.4797 66.3031 50.0011 66.3031C50.5226 66.3031 50.9445 65.8812 50.9445 65.3597V49.5592L58.4334 45.2074L66.7059 49.9837V54.6056C66.7059 55.127 67.1278 55.549 67.6493 55.549C68.1707 55.549 68.5927 55.127 68.5927 54.6056V51.073L74.3839 54.4167ZM60.3141 44.1147L66.7059 40.4005V47.805L60.3141 44.1147ZM66.7059 37.1272L58.4959 32.3874L66.7059 27.6167V37.1272ZM65.7671 25.9803L56.6126 31.3002L50.9445 28.0278C50.9445 27.6425 50.9445 16.7937 50.9445 17.4216L65.7671 25.9803ZM49.0577 17.4294C49.0577 17.7937 49.0577 28.5128 49.0577 28.032L43.5058 31.2585L34.3549 25.9748L49.0577 17.4294ZM41.6253 32.3513L33.383 37.1412V27.5926L41.6253 32.3513Z" fill="#FF602F"/>
</svg>
