<svg width="100" height="100" viewBox="0 0 100 100" fill="none" xmlns="http://www.w3.org/2000/svg">
<path d="M77.7958 4.8451C99.801 17.6308 80.4199 6.36996 88.737 11.2029C89.0395 11.3783 89.2058 11.8258 89.2068 12.0155L89.334 57.3851C89.3358 57.7232 89.1552 58.0355 88.8623 58.205L81.9932 62.1712C81.5399 62.431 80.9632 62.279 80.7052 61.8257C80.4436 61.3743 80.5983 60.7975 81.0498 60.5368L87.4453 56.8443L87.3237 13.6503L58.4008 30.3485C56.6298 37.973 58.0843 31.7117 56.0971 40.2624C56.0749 40.3466 55.9188 40.6168 55.9005 40.6377C55.1213 41.9883 49.6586 45.7922 44.2628 63.051C44.1799 63.3265 43.9736 63.5494 43.7064 63.6554C43.6869 63.6628 43.6661 63.6604 43.6464 63.6666C43.6426 63.6679 43.6402 63.6716 43.6364 63.6729C36.6299 65.9211 30.3976 68.7777 25.277 74.144L25.3286 92.7081L65.9997 69.2264C66.4492 68.9675 67.0278 69.1204 67.2876 69.5719C67.5493 70.0233 67.3945 70.6 66.9431 70.8607L24.8606 95.1569C24.5695 95.3245 24.2102 95.3255 23.919 95.1578C23.918 95.1572 23.9176 95.156 23.9166 95.1554C19.8752 92.8064 12.5521 88.5499 12.976 88.7963C12.6849 88.6286 12.508 88.3191 12.5061 87.9837L12.4472 67.3995C12.4461 67.2215 12.6075 66.8526 12.7015 66.7527C15.071 64.2137 17.7575 62.0929 20.9138 60.2696C21.1341 60.1425 21.3778 60.0258 21.6033 59.9014L21.5952 57.0838L12.0805 62.5775C11.6271 62.8378 11.0496 62.6819 10.7925 62.232C10.5309 61.7805 10.6857 61.2038 11.1371 60.9431L21.5891 54.9083L21.5674 47.2537L12.0805 52.7308C11.6251 52.9922 11.0491 52.8329 10.7925 52.3853C10.5309 51.9338 10.6857 51.3571 11.1371 51.0964L21.5612 45.0782L21.5163 29.2269C21.5145 28.7055 21.9364 28.2826 22.4579 28.2808C22.9775 28.2808 23.4013 28.7018 23.4031 29.2214L23.4449 43.9906L29.3406 40.5869L29.2956 24.7366C29.2938 24.2151 29.7157 23.7923 30.2372 23.7904C30.7568 23.7904 31.1806 24.2114 31.1824 24.731L31.2242 39.4994L43.5797 32.3662L45.724 23.1676C45.7767 22.943 46.0488 22.6263 46.1625 22.5605L76.8506 4.84326C77.1435 4.67374 77.5065 4.67559 77.7958 4.8451ZM45.0238 43.5566L35.964 48.7875C35.3924 50.1721 34.8649 51.5783 34.4309 53.0173L33.5223 55.9739C33.7114 56.0838 43.4124 61.7179 42.7933 61.3584C45.3638 53.2798 47.5785 47.4412 53.7226 40.2621L44.4361 34.8827C41.9087 37.7542 39.5061 41.4454 37.2857 45.8454L44.0804 41.9222C44.53 41.6634 45.1086 41.8154 45.3684 42.2677C45.63 42.7191 45.4753 43.2959 45.0238 43.5566ZM31.6382 55.6836L32.627 52.4673C32.8501 51.7272 33.1276 51.0045 33.3868 50.2756L31.2583 51.5045L31.2705 55.8095C31.3963 55.7678 31.5109 55.7252 31.6382 55.6836ZM23.4409 92.6966L23.3899 74.2978C23.1204 74.1412 13.7415 68.6912 14.3395 69.0387L14.3911 87.4374L23.4409 92.6966ZM14.907 67.1866L24.1622 72.5651C28.88 67.7254 34.6711 64.761 41.0678 62.5406C40.8768 62.4297 31.7226 57.1174 32.2898 57.4466C31.9334 57.5628 31.6198 57.6816 31.2762 57.7984L31.2911 63.0989C31.293 63.6204 30.871 64.0432 30.3496 64.0451C29.83 64.0451 29.4062 63.624 29.4044 63.1044L29.3912 58.4524C27.1805 59.2679 25.2533 60.1187 23.4933 61.0284L23.5118 67.5902C23.5137 68.1116 23.0917 68.5345 22.5703 68.5363C22.0507 68.5363 21.6269 68.1153 21.625 67.5957L21.6094 62.0574C19.0869 63.541 16.8769 65.2239 14.907 67.1866ZM23.4872 58.9079C25.2518 58.0444 27.2035 57.2372 29.3855 56.4548L29.3745 52.5922L23.479 55.9963L23.4872 58.9079ZM23.4511 46.1661L23.4728 53.8208L29.3684 50.4167L29.3468 42.7624L23.4511 46.1661ZM31.2521 49.329L34.4894 47.46C34.8057 46.7229 35.1071 45.9777 35.459 45.261C37.2451 41.6888 39.1566 38.5822 41.1572 35.9438L31.2305 41.6749L31.2521 49.329ZM50.1075 30.7765L45.6164 33.3694L54.5549 38.5625C54.5986 38.3738 56.6197 29.6542 56.492 30.2053L47.2718 24.8388L45.8195 31.0731L49.1641 29.1422C49.6137 28.8851 50.1922 29.0371 50.452 29.4876C50.7137 29.9391 50.5589 30.5158 50.1075 30.7765ZM48.5177 23.3802C51.4145 25.0638 58.0006 28.8916 57.5767 28.6452C58.267 28.2467 62.3659 25.8802 86.3803 12.0155L77.3204 6.75032L48.5177 23.3802Z" fill="#FF602F"/>
<path d="M76.2273 63.321C76.6769 63.063 77.2555 63.215 77.5153 63.6665C77.7769 64.1179 77.6222 64.6946 77.1707 64.9553L72.264 67.7883C71.8105 68.0486 71.2331 67.8927 70.976 67.4428C70.7144 66.9914 70.8691 66.4146 71.3206 66.1539L76.2273 63.321Z" fill="#FF602F"/>
</svg>
