<svg width="90" height="90" viewBox="0 0 90 90" fill="none" xmlns="http://www.w3.org/2000/svg">
<path d="M21.2529 45.0022C21.2545 45.4698 21.6343 45.8488 22.1019 45.8488C22.5712 45.8471 22.9526 45.4665 22.951 44.9972L22.8896 23.1574C23.06 23.2565 29.6306 27.0752 29.239 26.8476C29.2765 40.1604 29.3597 69.6743 29.3985 83.4278L23.0488 79.7381L22.9941 60.3441C22.9924 59.8764 22.6127 59.4975 22.145 59.4975C21.6757 59.4992 21.2943 59.8797 21.296 60.349L21.3524 80.2297C21.354 80.5316 21.5149 80.8102 21.7752 80.9611C21.9471 81.0609 29.9994 85.7393 29.8275 85.6395C29.8284 85.64 29.8287 85.6411 29.8297 85.6416C30.0916 85.7925 30.415 85.7917 30.6771 85.6408L68.3888 63.868C68.6524 63.7154 68.815 63.4343 68.8133 63.13L68.6774 15.1707C68.6782 15.1558 68.6888 15.1436 68.6889 15.1285C68.6906 14.8267 68.533 14.5473 68.2727 14.393C55.3755 6.74986 51.0644 4.28797 51.1887 4.36024C50.93 4.20767 50.6034 4.20767 50.338 4.35858L21.6111 20.9442C21.3106 21.1181 21.1865 21.5081 21.1865 21.6789C21.1865 21.6782 21.1865 21.6795 21.1865 21.6789C21.1865 21.6795 21.1865 21.6815 21.1865 21.6822L21.2529 45.0022ZM31.0974 83.4364C31.069 73.3848 30.9703 38.4936 30.9374 26.848L57.9679 11.2418L57.9945 20.3323C57.9961 20.6349 58.157 20.9144 58.4206 21.0661C58.6827 21.217 59.006 21.2162 59.268 21.0653L66.9842 16.6102L67.1135 62.6433L31.0974 83.4364ZM66.1583 15.1136L59.6893 18.848L59.6732 13.3421L59.6677 11.2655L66.1583 15.1136ZM50.7609 6.07493L57.1201 9.77017L30.0878 25.3774L23.7287 21.6822L50.7609 6.07493Z" fill="#FF602F"/>
<path d="M22.1316 56.0308C22.6009 56.03 22.9806 55.6486 22.979 55.1793L22.9657 50.1554C22.964 49.6878 22.5843 49.3088 22.1166 49.3088C21.6473 49.3105 21.2659 49.6911 21.2676 50.1604L21.2809 55.1842C21.2825 55.6519 21.6639 56.0308 22.1316 56.0308Z" fill="#FF602F"/>
<path d="M62.8615 29.9216C62.3922 29.9233 62.0108 30.3038 62.0124 30.7731L62.092 59.0466L49.3453 66.5248L49.3277 60.347L52.7574 58.3667C53.1637 58.132 53.303 57.6129 53.0675 57.2067C52.8337 56.7979 52.3146 56.6611 51.9083 56.8957L43.8954 61.5224C43.4891 61.7571 43.3498 62.2761 43.5853 62.6824C43.8164 63.0869 44.3358 63.2279 44.7444 62.9933L47.6323 61.3259L47.65 67.5194L36.35 74.1488L36.2912 53.0794L47.7408 46.4679L47.746 48.3819C47.7476 48.8496 48.1274 49.2285 48.595 49.2285C49.0643 49.2269 49.4457 48.8463 49.4441 48.377L49.4258 41.6185C49.4242 41.1509 49.0444 40.7719 48.5768 40.7719C48.1075 40.7736 47.7261 41.1542 47.7277 41.6235L47.7355 44.5098L36.2857 51.1214L36.2257 29.6355L44.6142 24.7926L44.6333 31.6123L40 34.2871C39.5937 34.5218 39.4544 35.0408 39.6899 35.4471C39.921 35.8516 40.4404 35.9926 40.849 35.758L45.9086 32.8369C46.1722 32.6844 46.3347 32.4033 46.3331 32.099L46.3096 23.8138L53.5434 19.6376C53.9497 19.4029 54.089 18.8839 53.8535 18.4776C53.6197 18.0705 53.099 17.932 52.6944 18.1666L34.9504 28.4109C34.6867 28.5634 34.5242 28.8445 34.5259 29.1488L34.6569 75.6314C34.6586 75.9348 34.8211 76.2159 35.0847 76.366C35.3515 76.518 35.6747 76.5142 35.9355 76.361L63.3723 60.2638C63.6326 60.1112 63.7935 59.8309 63.7918 59.5291L63.7106 30.7682C63.7089 30.3005 63.3291 29.9216 62.8615 29.9216Z" fill="#FF602F"/>
<path d="M57.1008 49.8742H57.1041C57.5718 49.8725 57.9515 49.492 57.9499 49.0227L57.9349 43.964C57.9333 43.4955 57.5535 43.1174 57.0859 43.1174H57.0826C56.6149 43.1191 56.2352 43.4996 56.2368 43.9689L56.2517 49.0276C56.2534 49.4961 56.6332 49.8742 57.1008 49.8742Z" fill="#FF602F"/>
</svg>
