<svg width="90" height="90" viewBox="0 0 90 90" fill="none" xmlns="http://www.w3.org/2000/svg">
<path d="M10.6035 80.5643C10.6043 80.8661 10.7652 81.1447 11.0255 81.2956L18.5004 85.6395C18.7667 85.7943 19.0909 85.7915 19.3519 85.6412C19.3582 85.6377 19.3605 85.6303 19.3665 85.6266L44.7287 70.9814L44.7507 78.7418C44.7515 79.0428 44.9123 79.3205 45.1727 79.4723C45.3427 79.5712 49.8097 82.1692 49.6397 82.0703C49.6406 82.0709 49.6409 82.072 49.6419 82.0725C49.8952 82.2184 50.2178 82.2275 50.4901 82.0717L79.1209 65.5491C79.3846 65.3965 79.5462 65.1154 79.5454 64.8111L79.4434 28.8456C79.4426 28.5785 79.1853 28.2096 79.0214 28.1143L79.0194 28.1132C79.0189 28.1128 79.0186 28.1121 79.0181 28.1118C79.0175 28.1115 79.0168 28.1116 79.0163 28.1113L74.5547 25.5157C74.2919 25.3623 73.966 25.3623 73.7032 25.5141L59.5887 33.6599L59.5246 9.43588C59.5238 9.13324 59.3612 8.85382 59.0992 8.70291C58.9269 8.60368 51.4542 4.26208 51.6269 4.36061C51.364 4.20722 51.0382 4.20722 50.7753 4.35896L44.0003 8.27009C43.594 8.50474 43.4547 9.02379 43.6893 9.43008C43.9232 9.83554 44.443 9.97318 44.8493 9.74101L51.1982 6.07531L56.9799 9.43588C52.7065 11.9028 21.7078 29.7979 18.7775 31.4895L12.9981 28.1309L33.9733 16.021C34.3796 15.7864 34.5189 15.2673 34.2842 14.8611C34.0487 14.4531 33.5289 14.3155 33.1242 14.5501L10.8796 27.3929C10.6142 27.5466 10.4559 27.8294 10.4551 28.1276C10.4551 28.1282 10.4555 28.1286 10.4555 28.1292C10.4555 28.1298 10.4551 28.1303 10.4551 28.1309L10.6035 80.5643ZM12.1573 29.6062L17.9316 32.9619C17.9457 38.1423 17.8804 14.2352 18.0695 83.4255L12.3 80.0726L12.1573 29.6062ZM44.6963 61.3714L26.3898 71.9377L26.2936 36.7923L51.2073 22.4031L51.2529 38.4707L45.0748 42.0363C45.0742 42.0366 45.0753 42.0359 45.0748 42.0363C44.7787 42.2064 44.6491 42.6006 44.6487 42.7705C44.6487 42.7712 44.6492 42.7718 44.6492 42.7725C44.6492 42.7733 44.6487 42.7739 44.6487 42.7746L44.6963 61.3714ZM46.3511 44.2508C46.5371 44.359 49.288 45.9599 49.1162 45.8599C49.1555 61.3283 49.1251 51.5083 49.2119 79.8571L46.4471 78.2493C46.4396 75.6009 46.4548 80.9628 46.3511 44.2508ZM50.9105 79.8686L50.8148 45.8602C59.3357 40.9431 53.7909 44.1433 77.7495 30.3165L77.8456 64.3244L50.9105 79.8686ZM74.126 27.2312L76.9004 28.8448C74.7238 30.101 85.4092 23.9341 49.9661 44.3893C49.7801 44.2811 47.021 42.6761 47.1928 42.7761C54.879 38.35 47.9588 42.3431 74.126 27.2312ZM52.9484 37.4922L52.9013 20.9321C52.9004 20.6295 52.7379 20.3501 52.4759 20.1983C52.2131 20.0466 51.8889 20.0491 51.6277 20.1992L25.0184 35.5676C24.7547 35.7202 24.593 36.0012 24.5939 36.3055L24.6958 73.4087C24.6967 73.7113 24.8592 73.9907 25.1212 74.1416C25.3807 74.2927 25.7058 74.2934 25.9694 74.1416L44.7012 63.3292L44.7158 69.0282L19.7723 83.4311C19.5871 14.2617 19.651 38.1367 19.6372 32.9574C19.9874 32.7552 57.5277 11.0817 57.8306 10.9068L57.8928 34.6386L52.9484 37.4922Z" fill="#FF602F"/>
<path d="M37.9458 13.7267L41.6115 11.6107C42.0178 11.376 42.1571 10.857 41.9225 10.4507C41.687 10.0427 41.1671 9.90508 40.7625 10.1397L37.0968 12.2557C36.6905 12.4904 36.5512 13.0094 36.7859 13.4157C37.0211 13.8231 37.5417 13.9601 37.9458 13.7267Z" fill="#FF602F"/>
<path d="M76.5986 63.133C76.5986 62.9382 76.5406 34.0767 76.5398 33.9069C76.5389 33.6042 76.3772 33.3248 76.1152 33.1731C75.8532 33.0213 75.5298 33.0205 75.2678 33.1722C44.0372 51.1834 54.8087 44.9713 52.4785 46.3152C52.214 46.4678 52.0514 46.7497 52.0523 47.0548C52.061 50.041 52.0206 36.2373 52.1377 76.2594C52.1377 76.5628 52.2994 76.8431 52.5622 76.9948C52.8234 77.1453 53.1449 77.1473 53.4113 76.9948C63.3083 71.285 76.391 63.7238 76.1851 63.8492C76.44 63.694 76.5986 63.3932 76.5986 63.133ZM74.8898 61.7392L72.3606 60.4693L72.3121 36.8395L74.8441 35.3745L74.8898 61.7392ZM70.6627 60.5037L63.7393 64.5016L63.6776 41.8212L70.616 37.8223L70.6627 60.5037ZM61.982 42.7983L62.0439 65.4806L53.8325 70.2223L53.752 47.5415L61.982 42.7983ZM53.8358 72.1819L71.5408 61.9572L73.9678 63.1758L53.8358 74.7893V72.1819Z" fill="#FF602F"/>
</svg>
