<svg width="156" height="40" viewBox="0 0 156 40" fill="none" xmlns="http://www.w3.org/2000/svg">
<path fill-rule="evenodd" clip-rule="evenodd" d="M32.3803 35.2805C32.3803 35.2805 31.521 37.2889 30.0174 37.2889C28.2981 37.2889 27.7974 35.4246 27.7974 35.4246L23.859 24.4468L31.45 4.27474C31.45 4.27474 32.3093 2.26545 33.8129 2.26545C35.5314 2.26545 36.032 4.13065 36.032 4.13065L39.9704 15.1084L32.3803 35.2805ZM67.2162 0.478516C67.2162 0.478516 68.2361 1.54053 68.2361 2.51004V16.7432C68.2361 16.7432 68.1287 18.3309 67.3236 19.191H72.6396C72.6396 19.191 71.673 17.8186 71.673 16.7432V7.13792C71.673 7.13792 71.8878 6.86841 72.5322 8.05229C73.1766 9.23616 77.7408 19.191 78.8158 19.191H83.4865C83.4865 19.191 82.7897 18.169 82.7897 16.5004V2.77866C82.7897 2.77866 83.2193 1.17763 83.9702 0.478516H78.2779C78.2779 0.478516 79.4593 1.75667 79.4593 2.77866V10.8505C79.4593 10.8505 76.0765 4.62163 74.09 0.478516H67.2162Z" fill="#FF602F"/>
<path d="M84.0394 9.70536C84.327 9.02315 84.9705 5.36479 84.9705 5.36479C85.6993 5.64297 86.4606 5.38245 86.5074 5.36644L86.5097 5.36568C88.0488 4.86313 90.1259 4.6123 90.1259 4.6123C95.0309 4.6123 95.3531 8.45033 95.3531 8.45033V17.2035C95.3531 18.2442 95.962 19.2484 95.962 19.2484H90.8422C91.4511 18.4586 91.4875 17.2747 91.4875 17.2747V12.9341C91.4875 12.5757 91.3073 12.5036 91.3073 12.5036C88.9444 13.257 87.4781 13.9739 87.4781 14.9069C87.4781 15.84 88.2299 16.1984 89.0172 16.1984C89.8045 16.1984 90.8431 15.7688 90.8431 15.7688L89.9119 19.6069C89.4477 19.2119 87.2632 19.5348 87.2632 19.5348C83.3239 19.5348 83.2529 15.3374 83.2529 15.3374C83.2529 11.6618 87.367 10.4896 88.3352 10.2137C88.397 10.1961 88.4459 10.1822 88.4802 10.1714C88.5465 10.1507 88.6351 10.1256 88.7398 10.0959C89.5374 9.86974 91.2727 9.3777 91.2727 8.52149C91.2727 7.55286 89.5542 7.44524 89.5542 7.44524C86.7245 7.44524 84.0394 9.70536 84.0394 9.70536Z" fill="#FF602F"/>
<path fill-rule="evenodd" clip-rule="evenodd" d="M123.698 12.3088C123.731 16.7713 120.668 19.8684 116.726 19.8684C112.783 19.8684 109.696 16.6992 109.695 12.3088C109.695 7.91844 112.783 4.74928 116.726 4.74928C120.669 4.74928 123.661 7.63203 123.698 12.3088ZM119.121 12.3093C119.148 15.5319 118.033 16.5201 116.691 16.5201C115.349 16.5201 114.29 15.1734 114.262 12.3093C114.231 9.19445 115.35 8.09863 116.691 8.09863C118.032 8.09863 119.094 9.01567 119.121 12.3093Z" fill="#FF602F"/>
<path fill-rule="evenodd" clip-rule="evenodd" d="M107.168 4.78257C107.759 4.78257 108.326 4.54741 108.743 4.12881C109.161 3.7102 109.396 3.14245 109.396 2.55046C109.396 1.95847 109.161 1.39073 108.743 0.972128C108.326 0.553527 107.759 0.318359 107.168 0.318359C106.585 0.330023 106.03 0.570317 105.622 0.987648C105.213 1.40498 104.985 1.96607 104.985 2.55046C104.985 3.13486 105.213 3.69596 105.622 4.11329C106.03 4.53062 106.585 4.77091 107.168 4.78257Z" fill="#FF602F"/>
<path fill-rule="evenodd" clip-rule="evenodd" d="M104.411 19.2106H109.924C109.208 18.709 108.995 16.8429 108.995 16.8429V5.32791H101.554L101.557 0.269531C101.557 0.269531 100.474 0.700034 99.2202 0.771191C99.2202 0.771191 99.3986 5.04061 96.3558 5.29144L95.5685 8.34052H97.5018V16.1251C97.5018 16.1251 97.6438 19.5691 101.224 19.5691C101.224 19.5691 102.262 19.6056 103.767 19.031L104.625 15.0488C104.625 15.0488 103.73 15.7666 102.836 15.7666C101.941 15.7666 101.546 15.0488 101.546 14.0802L101.549 8.34052H105.233V16.8429C105.235 17.9912 104.411 19.2106 104.411 19.2106ZM90.3057 25.2403H86.0877L86.0913 20.181C86.0913 20.181 85.0075 20.6115 83.7541 20.6845C83.7541 20.6845 83.9343 24.953 80.8898 25.2029L80.1024 28.2538H82.0357V36.0384C82.0357 36.0384 82.1795 39.4815 85.7593 39.4815C85.7593 39.4815 86.796 39.5179 88.3006 38.9433L89.1589 34.9612C89.1589 34.9612 88.2642 35.679 87.3695 35.679C86.4747 35.679 86.0815 34.9612 86.0815 33.9935C86.0815 33.5834 86.0815 31.044 86.0851 28.2538H89.7687L90.3057 25.2403Z" fill="#FF602F"/>
<path fill-rule="evenodd" clip-rule="evenodd" d="M79.243 20.2379C79.243 20.2379 78.5276 20.704 77.9906 20.5599C77.6098 20.4594 74.9114 19.771 73.3359 19.771C71.7612 19.771 66.8917 20.165 66.8917 25.7971C66.8917 25.7971 66.6769 29.4554 71.8322 30.964C76.9876 32.4698 76.9157 33.2588 76.9157 34.6935C76.9157 36.1282 75.3046 36.5596 73.9803 36.5596C72.6559 36.5596 69.219 35.3401 66.7852 31.8605V38.5697C66.7852 38.5697 67.2503 38.302 67.7154 38.2816C68.5746 38.2469 71.4745 40 74.4099 40C77.3453 40 81.3902 38.4257 81.3902 33.1885C81.3902 33.1885 81.6414 29.3149 76.9876 27.7717C72.3337 26.2293 71.494 25.5827 71.494 24.5785C71.494 23.5743 72.6568 23.0015 74.196 23.0015C75.7351 23.0015 78.2773 24.1845 79.9958 25.6903L79.243 20.2379ZM151.202 16.5378V2.72709C151.202 1.65084 150.702 0.825422 150.702 0.825422C153.674 0.825422 155.105 0 155.105 0C155.105 0 155.038 14.9599 155.069 16.6454C155.105 18.5115 156 19.2284 156 19.2284H144.901C145.51 18.4386 145.546 17.2556 145.546 17.2556V12.915C145.546 12.5565 145.366 12.4845 145.366 12.4845C143.005 13.2379 141.537 13.9557 141.537 14.8878C141.537 15.8209 142.29 16.1793 143.076 16.1793C143.863 16.1793 144.902 15.7488 144.902 15.7488L143.971 19.5868C143.507 19.1919 141.322 19.5148 141.322 19.5148C137.385 19.5148 137.312 15.3174 137.312 15.3174C137.312 11.4074 141.967 10.3311 142.539 10.1514C143.112 9.97176 145.332 9.4701 145.332 8.50148C145.332 7.53285 143.613 7.42523 143.613 7.42523C140.783 7.42523 138.1 9.68535 138.1 9.68535C138.386 9.00403 139.029 5.34478 139.029 5.34478C139.782 5.63119 140.569 5.34478 140.569 5.34478C142.108 4.84223 144.185 4.59141 144.185 4.59141C149.089 4.59141 149.412 8.42944 149.412 8.42944C149.412 8.42944 149.428 16.7842 149.454 16.9434C149.454 16.9434 149.539 18.1513 150.236 18.1513C150.236 18.1513 151.202 18.0988 151.202 16.5378ZM117.371 36.7873V23.2434C117.371 22.1681 116.871 21.3426 116.871 21.3426C119.841 21.3426 121.255 20.5172 121.255 20.5172C121.255 20.5172 121.224 35.1 121.255 36.7864C121.291 38.6525 122.095 39.4236 122.095 39.4236H116.457C116.457 39.4236 117.371 38.9398 117.371 36.7873Z" fill="#FF602F"/>
<path fill-rule="evenodd" clip-rule="evenodd" d="M131.923 19.2291H137.562C137.562 19.2291 136.953 18.4579 136.918 16.5927V9.62469C136.918 9.62469 137.078 4.75488 132.031 4.75488C132.031 4.75488 129.477 4.8803 127.802 6.27053L127.811 4.85806C127.811 4.85806 126.767 5.29301 123.796 5.29301C123.796 5.29301 124.297 6.11843 124.297 7.19468V16.5936C124.297 18.7461 123.385 19.23 123.385 19.23H129.023C129.023 19.23 128.2 18.4588 128.165 16.5936C128.147 15.746 128.158 13.1968 128.17 10.3629C128.205 9.55353 129.233 8.14552 130.582 8.14552C132.301 8.14552 132.836 9.59 132.836 10.2891V16.5936C132.835 18.7452 131.923 19.2291 131.923 19.2291Z" fill="#FF602F"/>
<path fill-rule="evenodd" clip-rule="evenodd" d="M109.711 24.8647C116.763 24.8647 116.871 31.4298 116.871 31.8238C116.871 32.2196 116.691 33.295 116.69 33.2977H107.347C107.347 34.2307 108.134 36.2756 110.891 36.2756C113.648 36.2756 116.047 34.4824 116.047 34.4824L114.972 39.2891C114.972 39.2891 114.579 38.9662 113.326 39.3238C112.072 39.6831 110.104 39.7543 110.104 39.7543C103.015 39.7543 102.585 33.7984 102.585 33.4044C102.585 33.3857 102.585 33.3493 102.587 33.2968H93.8856C93.8856 34.2298 94.6729 36.2747 97.4308 36.2747C100.188 36.2747 102.585 34.4816 102.585 34.4816L101.512 39.2882C101.512 39.2882 101.117 38.9653 99.8655 39.3229C98.6122 39.6822 96.6425 39.7534 96.6425 39.7534C96.6425 39.7534 88.9539 40.0763 88.9539 32.3993C88.9539 24.9189 96.2493 24.8647 96.2493 24.8647C100.753 24.8647 102.554 27.542 103.27 29.5797C104.08 27.3054 105.848 24.8647 109.711 24.8647ZM112.215 30.282H107.597C107.597 30.282 108.063 28.3447 109.889 28.3447C111.714 28.3447 112.215 30.282 112.215 30.282ZM98.7551 30.282H94.1367C94.1367 30.282 94.601 28.3447 96.4268 28.3447C98.2544 28.3447 98.7551 30.282 98.7551 30.282Z" fill="#FF602F"/>
<path d="M16.5401 39.1325H0C0 39.1325 12.0292 7.49083 13.5319 3.72485C14.8208 0.496098 17.291 0.496094 17.291 0.496094H32.0053C34.046 0.496094 34.1889 1.3571 34.1889 1.3571C31.4328 -0.185232 30.1794 3.50959 30.1794 3.50959L16.5401 39.1325Z" fill="#FF602F"/>
<path d="M47.2557 0.496094H63.7958C63.7958 0.496094 51.7666 32.136 50.2638 35.9029C48.975 39.1325 46.5047 39.1325 46.5047 39.1325H31.7905C29.7498 39.1325 29.4631 38.4148 29.4631 38.4148C32.363 39.7418 33.6163 36.1182 33.6163 36.1182L47.2557 0.496094Z" fill="#FF602F"/>
</svg>
