<svg width="150" height="32" viewBox="0 0 150 32" fill="none" xmlns="http://www.w3.org/2000/svg">
<path d="M135.646 15.4236C135.553 15.8994 135.443 15.6705 135.362 15.4379C133.663 10.0648 128.255 6.13686 121.847 6.13686C115.458 6.13686 110.064 10.0415 108.348 15.3897C108.27 15.6705 108.03 15.6 108.026 15.3885C107.888 9.68419 103.282 5.92315 97.2782 5.95802C94.2395 5.97545 91.7664 7.09609 90.8492 8.32072C90.7745 8.42716 90.5911 8.46121 90.5911 8.21427V0H84.0889V19.2486C84.0889 22.1396 82.2413 26.1585 77.8818 26.1585C73.8915 26.1585 71.9704 23.973 71.9704 19.6719V11.8453H82.1673V5.92274H71.9704V0H65.4679V15.4061C65.4679 15.7763 65.2277 15.7763 65.0846 15.4226C63.4056 10.0314 58.0287 6.07451 51.7241 6.07451C47.495 6.07451 43.8299 7.76368 41.2457 10.555C41.1391 10.6467 41.0653 10.5587 41.0838 10.4353V5.92274C30.1375 5.92274 27.6775 11.8231 27.0949 15.4937C27.0443 15.794 26.7303 15.7763 26.6614 15.4753C25.0393 10.0482 19.804 6.07451 13.5961 6.07451C10.9981 6.07451 8.57138 7.12132 6.50393 8.95672V0.000205095L0 0L0.0111545 19.037C0.0278863 26.196 6.09336 32 13.5961 32C19.884 32 25.1742 27.9233 26.7223 22.389C26.7856 22.2276 26.8965 22.2453 26.8965 22.3862V31.3053H33.399V19.1079C33.399 13.0061 37.1254 12.0225 39.9389 11.8715C40.123 11.8629 40.1283 11.9427 40.061 12.035C38.6727 14.0544 37.8674 16.4581 37.8674 19.037C37.8674 26.196 44.0712 32 51.7241 32C58.0161 32 63.3657 28.0763 65.0561 22.7018C65.1539 22.2276 65.4538 22.2282 65.498 22.7038C65.8352 26.7208 69.0623 31.8694 77.2906 31.8694C80.0411 31.8694 82.6055 30.4117 83.5831 29.3409C83.8298 29.1198 84.0887 29.1198 84.0887 29.5428V31.3053H90.5909V17.4507C90.7387 14.8419 92.1426 11.5282 95.9478 11.5282C100.714 11.5282 101.527 14.5249 101.527 15.6529V31.3056H108.029V22.7213C108.029 22.4746 108.306 22.5098 108.337 22.6528C110.042 28.0177 115.445 31.9377 121.847 31.9377C128.233 31.9377 133.448 28.362 134.577 22.7457L128.516 22.7416C127.269 25.3397 124.75 27.1155 121.847 27.1155C118.389 27.1155 115.477 24.5782 114.609 21.1509L121.404 21.1525H135.369V31.3056H141.872V19.1079C141.872 12.1273 147.192 11.8453 150 11.8453V5.92274C139.123 5.92274 136.372 11.7487 135.646 15.4236ZM13.2252 26.3408C9.0122 26.3408 5.59677 23.0816 5.59677 19.0616C5.59677 15.0417 9.0122 11.7827 13.2252 11.7827C17.4381 11.7827 20.8536 15.0419 20.8536 19.0616C20.8536 23.0816 17.4381 26.3408 13.2252 26.3408ZM51.5834 26.3408C47.3704 26.3408 43.955 23.0816 43.955 19.0616C43.955 15.0417 47.3704 11.7827 51.5834 11.7827C55.7966 11.7827 59.2118 15.0419 59.2118 19.0616C59.212 23.0816 55.7966 26.3408 51.5834 26.3408ZM121.686 16.046V16.045H115.151C116.251 13.0541 118.961 10.939 122.13 10.939C125.299 10.939 128.009 13.0547 129.109 16.046H121.686Z" fill="#FF602F"/>
</svg>
