<svg width="120" height="64" viewBox="0 0 120 64" fill="none" xmlns="http://www.w3.org/2000/svg">
<path fill-rule="evenodd" clip-rule="evenodd" d="M90.6159 9.97981H88.4236V20.23H90.6159V9.97981ZM70.6624 6.23627H68.4149V8.40599H70.6624V6.23627ZM78.9391 20.447C79.0494 20.447 79.2136 20.3931 79.324 20.3931C79.8724 20.3398 80.3098 20.2306 80.7498 20.0136C81.2424 19.7965 81.6805 19.417 82.0102 18.9297V20.1227C82.0102 21.0442 81.7908 21.6959 81.3527 22.1293C80.9692 22.5095 80.2566 22.6713 79.3246 22.7259H79.2143C78.5568 22.7259 78.0091 22.6174 77.6242 22.3457C77.2407 22.1287 77.0219 21.8032 77.0219 21.3697H74.7193C74.7745 22.3457 75.158 23.1054 75.9258 23.6467C76.7474 24.2432 77.8436 24.5148 79.2143 24.5148H79.3246C81.023 24.4602 82.2295 24.1353 82.9979 23.4297C83.7644 22.6707 84.1493 21.4776 84.1493 19.7953V9.97981H82.066V11.2808C81.6811 10.6842 81.243 10.3047 80.6953 10.0331C80.3104 9.81608 79.8736 9.7082 79.3246 9.65363H78.9398C77.5704 9.65363 76.419 10.1423 75.5961 11.1183C74.7745 12.0943 74.3357 13.3965 74.3357 15.077C74.3357 16.7041 74.7745 18.0057 75.5961 18.9817C76.419 19.959 77.5152 20.447 78.9391 20.447ZM77.2958 12.4738C77.7884 11.8227 78.4472 11.5517 79.2688 11.5517H79.324C80.2008 11.5517 80.914 11.8227 81.3521 12.4192C81.846 13.0158 82.0647 13.8839 82.0647 15.077C82.0647 16.2161 81.8453 17.0842 81.4072 17.6808C80.9692 18.2773 80.2559 18.5489 79.324 18.5489C78.4472 18.5489 77.7878 18.2227 77.2958 17.6268C76.8571 17.0303 76.5832 16.1082 76.5832 14.9691C76.5826 13.8845 76.8571 13.0703 77.2958 12.4738ZM108.158 14.047C108.103 14.047 108.049 14.1009 107.994 14.1009H107.939C106.294 14.318 105.143 14.6429 104.485 15.1855C103.883 15.7281 103.553 16.4877 103.553 17.5183C103.553 18.4943 103.828 19.2533 104.431 19.7959C105.033 20.3391 105.856 20.6095 106.897 20.6095C107.282 20.6095 107.609 20.5562 107.994 20.447C108.285 20.3862 108.563 20.2763 108.816 20.1221C109.418 19.8505 109.912 19.417 110.351 18.8744C110.351 19.4164 110.516 19.7959 110.845 20.0675C111.174 20.3391 111.667 20.447 112.326 20.447C112.49 20.447 112.709 20.447 112.873 20.3931C113.093 20.3931 113.258 20.3398 113.476 20.2852V18.712H113.038C112.764 18.712 112.599 18.6574 112.544 18.5495C112.434 18.441 112.379 18.17 112.379 17.7899V12.6921C112.379 11.6615 112.05 10.9025 111.338 10.4139C110.625 9.87193 109.584 9.65489 108.212 9.65489H107.994C106.788 9.65489 105.801 9.98108 105.088 10.523C104.321 11.1196 103.937 11.9338 103.937 12.9644V13.1268H106.076V13.0722C106.076 12.5303 106.239 12.1508 106.569 11.8246C106.897 11.6076 107.391 11.4451 107.995 11.4451H108.159C108.872 11.4451 109.419 11.5536 109.749 11.7707C110.079 12.0416 110.242 12.3672 110.242 12.8552C110.24 13.5044 109.584 13.8845 108.158 14.047ZM110.24 16.3798C110.24 17.0842 109.967 17.6808 109.419 18.1148C109.035 18.4943 108.542 18.7114 107.994 18.7653C107.775 18.8192 107.609 18.8192 107.391 18.8192C106.843 18.8192 106.46 18.7114 106.13 18.4397C105.856 18.1688 105.692 17.7886 105.692 17.3558C105.692 16.9218 105.856 16.5956 106.076 16.3252C106.35 16.0536 106.733 15.8912 107.226 15.7833C107.391 15.7833 107.665 15.7287 107.994 15.6741H108.049C109.035 15.5117 109.803 15.3492 110.24 15.0776V16.3798ZM96.3174 17.8984C96.3174 18.8199 96.4816 19.471 96.8658 19.8505C97.1942 20.1767 97.7964 20.3924 98.6745 20.3924C98.9478 20.3924 99.3858 20.3391 99.9901 20.2845H100.209V18.5489H99.7694H99.3858C99.0023 18.5489 98.7842 18.4943 98.6745 18.3858C98.5642 18.2779 98.5091 18.0063 98.5091 17.6268V11.6063H100.209V9.97981H98.5091V7.15899H96.3174V9.97981H94.8376V11.6063H96.3174V17.8984ZM67.8665 25.2199H65.6742V27.4442H67.8665V25.2199ZM70.6624 9.97981H68.4149V20.23H70.6624V9.97981ZM58.0537 20.23C59.8624 20.1221 61.2876 19.471 62.2754 18.4404C63.4267 17.1927 63.9738 15.4571 63.9738 13.1795C63.9738 10.9013 63.4799 9.11104 62.4389 7.97255C61.4518 6.88738 59.9721 6.29085 58.0537 6.23627H52.2432V20.23H58.0537ZM54.5997 8.18959H57.6701C57.7798 8.18959 57.944 8.24353 58.0537 8.24353C59.1498 8.29747 59.9721 8.73218 60.575 9.43659C61.2325 10.2502 61.5621 11.4978 61.5621 13.0703C61.5621 14.8054 61.2325 16.1082 60.575 16.9218C60.0273 17.6262 59.205 18.0602 58.0537 18.1688H54.6003L54.5997 8.18959ZM71.7586 47.6748C70.1685 47.6748 68.9075 48.1621 68.0307 49.1388C67.0988 50.0609 66.6613 51.417 66.6613 53.152C66.6613 54.8338 67.0988 56.1899 68.0307 57.1666C68.9075 58.142 70.1692 58.6306 71.7586 58.6306C73.348 58.6306 74.6096 58.142 75.5416 57.1666C76.4184 56.1899 76.8571 54.8338 76.8571 53.152C76.8571 51.417 76.4184 50.1155 75.4864 49.1388C74.6096 48.1621 73.348 47.6748 71.7586 47.6748ZM73.897 55.8104C73.4031 56.4063 72.6905 56.7325 71.7586 56.7325C70.8266 56.7325 70.1685 56.4063 69.6753 55.8104C69.182 55.2145 68.9075 54.2905 68.9075 53.152C68.9075 51.9596 69.182 51.0909 69.6753 50.4416C70.1692 49.8445 70.8818 49.5183 71.7586 49.5183C72.6905 49.5183 73.4031 49.8445 73.897 50.4416C74.3896 51.0909 74.6096 51.9603 74.6096 53.152C74.6096 54.2912 74.389 55.2145 73.897 55.8104ZM107.446 29.6678C106.897 29.0167 106.021 28.7451 104.87 28.7451C104.211 28.7451 103.663 28.8536 103.17 29.1252C102.622 29.3962 102.183 29.7757 101.799 30.2644C101.47 29.7224 101.032 29.3423 100.593 29.1252C100.099 28.8536 99.552 28.7451 98.8394 28.7451C98.2358 28.7451 97.6329 28.8536 97.1409 29.1252C96.647 29.3962 96.1525 29.7757 95.8241 30.3183V28.9615H93.7408V39.2669H95.9344V33.1378C95.9344 32.3249 96.0986 31.7284 96.5367 31.2943C96.9203 30.8602 97.4687 30.6432 98.18 30.6432C98.7297 30.6432 99.1684 30.8057 99.4417 31.0773C99.7701 31.4022 99.9355 31.8363 99.9355 32.3789V39.2669H102.074V33.1378C102.074 32.3249 102.293 31.7284 102.731 31.2943C103.115 30.8602 103.663 30.6432 104.376 30.6432C104.978 30.6432 105.417 30.8057 105.692 31.1319C105.966 31.5114 106.13 32.0533 106.13 32.8129V39.2669H108.267V32.6511C108.267 31.8369 108.212 31.1319 107.994 30.5893C107.829 30.2098 107.664 29.8849 107.446 29.6678ZM100.758 47.7281C100.129 47.7299 99.5089 47.8786 98.9484 48.1621C98.3975 48.4395 97.9265 48.8501 97.579 49.3558V47.9997H95.4406V58.2511H97.6329V52.2845C97.6329 51.4716 97.8523 50.7659 98.3455 50.3325C98.7855 49.8439 99.4417 49.5729 100.265 49.5729C100.922 49.5729 101.361 49.7366 101.689 50.1155C102.019 50.4417 102.183 50.8751 102.183 51.5262V58.2517H104.377V51.7432C104.377 50.2792 104.102 49.248 103.554 48.6521C103.005 48.0543 102.074 47.7281 100.758 47.7281ZM86.6148 28.6372H86.5045C85.0799 28.6918 83.8734 29.1259 83.0518 30.1019C82.1737 31.0786 81.735 32.3801 81.735 34.1151C81.735 35.7956 82.1737 37.1517 83.0518 38.1284C83.8734 39.1051 85.0248 39.5937 86.5045 39.5937H86.5597C87.711 39.5937 88.7533 39.2675 89.6288 38.617C90.4517 37.9666 90.9995 37.0984 91.1649 36.0126H88.9713C88.861 36.5552 88.5878 36.9347 88.1497 37.2609C87.7661 37.5312 87.2729 37.695 86.67 37.695H86.5045C85.7919 37.6404 85.189 37.4233 84.7509 36.9353C84.3122 36.3934 84.0935 35.6883 84.0383 34.7129H91.2746C91.2746 34.7129 91.2746 34.6584 91.3298 34.6584V33.9521C91.3298 32.3262 90.8911 31.024 90.0681 30.048C89.2459 29.1252 88.0945 28.6372 86.6148 28.6372ZM86.5045 33.1385H84.0376C84.0928 32.271 84.3673 31.6199 84.8054 31.1858C85.189 30.7517 85.7912 30.4814 86.5039 30.4814H86.559C87.3268 30.4814 87.9297 30.7524 88.3678 31.1858C88.8065 31.6745 89.0252 32.2703 89.0252 33.1385H86.5045ZM116.271 49.248C115.887 48.7054 115.449 48.3259 114.901 48.0543C114.791 47.9997 114.681 47.9451 114.517 47.8905C114.078 47.7281 113.585 47.6748 113.037 47.6748C111.721 47.6748 110.678 48.1621 109.856 49.1934C109.035 50.17 108.596 51.5262 108.596 53.152C108.596 54.8338 109.035 56.1353 109.856 57.112C110.678 58.0874 111.721 58.6306 113.091 58.6306C113.585 58.6306 114.078 58.5214 114.517 58.359C114.626 58.3044 114.736 58.2511 114.846 58.1965C115.394 57.9249 115.832 57.4915 116.326 56.9495V58.2511H118.409V44.2574H116.271V49.248ZM115.613 55.7558C115.34 56.1353 114.956 56.4063 114.517 56.5688C114.243 56.6233 113.915 56.6779 113.585 56.6779C112.708 56.6779 112.05 56.4063 111.557 55.7558C111.063 55.1599 110.845 54.2905 110.845 53.206C110.845 52.0669 111.064 51.1448 111.557 50.5483C112.051 49.8978 112.708 49.5716 113.585 49.5716C113.915 49.5716 114.243 49.6262 114.517 49.7353C114.956 49.8432 115.34 50.1148 115.613 50.4404C116.107 51.0363 116.326 51.9044 116.326 53.0435C116.326 54.2379 116.107 55.1599 115.613 55.7558ZM119.725 37.7495H119.561C119.341 37.7495 119.176 37.695 119.067 37.5312C118.958 37.4233 118.958 37.2063 118.958 36.7729V31.6751C118.958 30.6984 118.574 29.9401 117.862 29.3968C117.203 28.9088 116.162 28.6379 114.736 28.6379H114.517C113.311 28.6924 112.378 28.9628 111.667 29.5599C110.899 30.1565 110.516 30.97 110.516 31.9461V32.1098H112.599V32.0552C112.599 31.5666 112.763 31.1338 113.147 30.8622C113.475 30.5905 113.914 30.4827 114.517 30.4281H114.681C115.394 30.4281 115.943 30.5372 116.272 30.8076C116.656 31.0246 116.82 31.4041 116.82 31.8928C116.82 32.4899 116.107 32.8694 114.737 33.0864H114.517C112.819 33.3035 111.667 33.6823 111.063 34.2256C110.406 34.7142 110.077 35.5259 110.077 36.5571C110.077 37.4792 110.406 38.2388 111.009 38.7808C111.557 39.3234 112.379 39.595 113.421 39.595C113.805 39.595 114.188 39.5404 114.517 39.4858C114.792 39.3779 115.065 39.2688 115.34 39.1609C115.942 38.8347 116.436 38.4558 116.875 37.9126C116.875 38.4552 117.093 38.8347 117.369 39.0517C117.697 39.3234 118.191 39.4312 118.904 39.4312H119.396C119.617 39.3779 119.781 39.3779 120 39.3234V37.6962C119.89 37.7495 119.78 37.7495 119.725 37.7495ZM116.765 35.4167C116.765 36.123 116.547 36.665 115.998 37.1517C115.561 37.4767 115.054 37.6991 114.517 37.8022C114.353 37.8022 114.134 37.858 113.969 37.858C113.421 37.858 112.983 37.6943 112.708 37.4227C112.379 37.2057 112.27 36.8268 112.27 36.3382C112.27 35.9587 112.379 35.5785 112.653 35.3615C112.873 35.0912 113.257 34.9287 113.805 34.8196C113.969 34.765 114.188 34.765 114.517 34.7117C114.572 34.7117 114.572 34.6571 114.572 34.6571C115.613 34.5479 116.326 34.3309 116.765 34.1145V35.4167ZM87.8213 53.7492C87.8213 54.7246 87.6019 55.4309 87.1626 55.9183C86.9641 56.1068 86.7434 56.2709 86.5051 56.4069C86.1767 56.5694 85.7374 56.6786 85.1896 56.6786C84.5322 56.6786 84.0383 56.4615 83.7638 56.136C83.4354 55.7565 83.325 55.1606 83.325 54.2918V48.0003H81.0776V54.5088C81.0776 55.3776 81.1327 55.9196 81.2418 56.2984C81.2969 56.6792 81.4624 57.0047 81.6253 57.2751C81.955 57.6558 82.3392 57.9801 82.887 58.1972C83.3809 58.4142 83.9831 58.5221 84.697 58.5221C85.3532 58.5221 85.9574 58.4142 86.5045 58.088H86.5597C87.1118 57.8126 87.5836 57.4021 87.9303 56.8956V58.2517H90.0136V47.9997H87.8213V53.7492ZM79.0494 29.6132C78.501 29.0167 77.5697 28.7451 76.2548 28.7451C75.5961 28.7451 74.9932 28.8536 74.4448 29.1252C73.897 29.4508 73.4038 29.8297 73.0741 30.3722V28.9615H70.9369V39.2669H73.1293V33.3016C73.1293 32.4341 73.3486 31.7817 73.8419 31.2943C74.2806 30.8057 74.938 30.5886 75.7597 30.5886C76.4184 30.5886 76.8571 30.7511 77.1855 31.0773C77.5152 31.4022 77.6794 31.8909 77.6794 32.488V39.2669H79.8724V32.7057C79.8724 31.512 79.7069 30.6438 79.324 29.9927C79.2504 29.8544 79.1581 29.7267 79.0494 29.6132ZM60.8495 36.665C60.1915 37.2609 59.3147 37.5312 58.273 37.5312H58.0537C56.8478 37.4779 55.9158 37.0438 55.2032 36.123C54.4361 35.1451 54.0526 33.8435 54.0526 32.1618C54.0526 30.536 54.4361 29.2338 55.1487 28.3117C55.8607 27.4442 56.8478 27.0101 58.0537 26.9562H58.3275C59.3153 26.9562 60.1369 27.1719 60.7944 27.6606C61.4043 28.1439 61.798 28.8449 61.8905 29.6126H64.2483C64.0841 28.1486 63.5357 26.9555 62.4947 26.142C61.4525 25.2738 60.0824 24.8943 58.3275 24.8943H58.0537C56.08 24.9483 54.5452 25.5987 53.3938 26.8464C52.2432 28.1486 51.6402 29.9388 51.6402 32.2697C51.6402 34.5479 52.2432 36.3375 53.3938 37.6937C54.5452 38.9953 56.08 39.647 58.0537 39.647H58.1633C59.9176 39.647 61.3434 39.1584 62.4941 38.1271C63.6454 37.0972 64.2477 35.7943 64.3029 34.223H62.0002C61.8905 35.2543 61.5076 36.0126 60.8495 36.665ZM58.0537 50.1155C57.944 50.0609 57.8343 50.0609 57.7246 50.0076C56.3546 49.6814 55.4778 49.3013 55.0384 48.9763C54.599 48.6514 54.381 48.2167 54.381 47.6748C54.381 47.1322 54.6548 46.6981 55.1481 46.3186C55.5868 45.9924 56.2442 45.83 57.012 45.83C57.3956 45.83 57.7791 45.83 58.0537 45.9379C58.5469 46.047 58.9305 46.2095 59.2595 46.4804C59.8073 46.9145 60.0818 47.565 60.1363 48.3246H62.3838C62.3838 46.9685 61.8899 45.8839 61.0131 45.071C60.246 44.4192 59.2595 44.0397 58.053 43.9306C57.8337 43.8773 57.5598 43.8773 57.2859 43.8773C55.6958 43.8773 54.4355 44.2568 53.4484 44.9618C52.5164 45.7202 52.0232 46.6435 52.0232 47.836C52.0232 48.9205 52.3522 49.7893 53.0103 50.4404C53.6684 51.0896 54.7645 51.5782 56.3539 52.0136C56.5181 52.0669 56.683 52.1215 57.012 52.176C57.3956 52.2839 57.7791 52.3931 58.0537 52.4476C58.7663 52.6647 59.205 52.935 59.4789 53.1514C59.6982 53.3151 59.8624 53.5868 60.0273 53.8577C60.1915 54.1281 60.246 54.3997 60.246 54.6161C60.246 55.2133 59.9721 55.6473 59.4789 56.0268C59.0953 56.3517 58.6014 56.5142 58.0537 56.5688C57.8895 56.6233 57.6701 56.6233 57.5059 56.6233C56.4097 56.6233 55.5323 56.4063 54.9294 55.8637C54.3264 55.3763 53.9422 54.67 53.8877 53.7492H51.5851C51.6948 55.3224 52.188 56.5688 53.1751 57.3836C54.1616 58.1965 55.5316 58.6306 57.2865 58.6306H58.0537C59.3692 58.5214 60.466 58.088 61.2876 57.4382C62.2747 56.624 62.7673 55.594 62.7673 54.2379C62.7673 53.152 62.4389 52.2845 61.8367 51.688C61.2331 51.1454 59.9721 50.6035 58.0537 50.1155ZM67.8665 28.9621H65.6742V39.2675H67.8665V28.9621ZM90.6159 6.23627H88.4236V8.40599H90.6159V6.23627ZM118.903 6.23627H116.71V20.23H118.903V6.23627ZM0 64H11.3484V53.0442H0V64ZM32.6181 13.3965L24.5601 5.47728L16.7202 13.2334L24.7236 21.1527L32.6181 13.3965ZM26.9166 37.695H38.045V26.4675H26.9166V37.695ZM16.6657 50.8751L24.5049 58.6306L32.5084 50.7114L24.6685 42.9565L16.6657 50.8751ZM0 10.9558H11.3484V0H0V10.9558Z" fill="#FF602F"/>
</svg>
