<svg width="152" height="46" viewBox="0 0 152 46" fill="none" xmlns="http://www.w3.org/2000/svg">
<path fill-rule="evenodd" clip-rule="evenodd" d="M0 33.2558V37.825H70.729V33.2558H0ZM67.6467 23.894C74.9392 23.894 80.0982 18.7617 80.0982 12.2277C80.0982 5.46692 74.5795 0.0872011 67.6467 0.0872011C60.444 0.0872011 55.0602 5.39965 55.0602 12.3174C55.0602 15.5703 56.271 18.4445 59.1675 21.0904C61.161 22.7629 64.1465 23.894 67.6467 23.894ZM149.36 16.4763C148.96 17.4239 147.688 18.9627 146.367 19.8438C145.355 20.5207 143.657 21.0646 142.342 21.0646C141.045 21.0646 139.303 20.431 137.819 18.986C136.807 17.9446 135.747 15.9988 135.747 12.1779C135.747 8.76384 136.925 2.93069 142.485 2.93069C144.65 2.93069 147.309 4.26524 148.938 7.65518L152 5.66623C150.022 2.27546 146.368 0.12706 141.282 0.12706C133.838 0.12706 128.255 5.5101 128.255 11.8839C128.255 18.5309 133.863 23.8674 141.588 23.8674C146.254 23.8674 149.924 21.7888 151.927 18.3042L149.36 16.4763ZM33.6166 23.3235H46.786C51.5419 23.3235 54.3432 20.3405 54.3432 17.4903C54.3432 15.9756 53.6868 14.6402 52.508 13.6461C51.3049 12.6089 49.8001 12.221 48.2217 11.9279C51.3292 11.658 53.5925 9.30863 53.5925 6.72922C53.5925 1.96072 47.8212 0.649418 45.6305 0.649418H33.6166V23.3235ZM104.609 23.3235H111.134V3.56516H117.477V0.648588H98.0226V3.49458H104.609V23.3235ZM80.7961 19.4892C82.1376 21.3453 84.1864 23.9878 89.7458 23.9878C94.7171 23.9878 98.3677 20.4177 98.3677 16.4356C98.3677 14.5605 97.5184 12.8655 95.9167 11.6439C95.4219 11.237 94.7413 10.786 93.2563 10.105C92.3326 9.6932 91.4134 9.27185 90.4991 8.84108L89.9802 8.57118C88.2608 7.75732 87.5784 6.46928 87.5784 5.63052C87.5784 4.16226 88.7088 2.98384 90.8304 2.98384C91.6528 2.98384 92.6898 3.34759 93.6075 4.11493C94.1497 4.58829 94.5735 5.08574 95.1409 6.35385L97.9673 4.61154C96.7443 2.07864 93.5876 0 89.6515 0C84.8022 0 81.1282 3.50371 81.1282 7.48493C81.1282 9.19983 81.8322 10.8516 83.5049 12.3672C84.093 12.9112 84.6111 13.2716 86.0943 13.9484C87.037 14.3794 87.9538 14.7863 88.8766 15.2165L89.4881 15.5105C90.7361 16.0976 91.6537 17.0684 91.6537 18.4038C91.6537 19.9194 90.5493 21.0505 88.7097 21.0505C87.1322 21.0505 85.0158 19.7824 84.1423 17.6564L80.7961 19.4892ZM95.4747 45.4477H100.898V29.3144H106.167V26.9385H90.0131V29.2795H95.4738V45.4477H95.4747ZM75.9321 42.3128C76.9717 43.8234 78.5829 46 82.9272 46C86.8347 46 89.6974 43.0676 89.6974 39.823C89.6974 38.3116 89.0314 36.9098 87.78 35.9157C87.3795 35.6026 86.8494 35.2148 85.6956 34.6825C84.9743 34.3304 84.2357 33.9816 83.5136 33.6295L83.0984 33.426C81.7691 32.745 81.2389 31.6953 81.2389 31.0102C81.2389 29.8127 82.1324 28.8535 83.7592 28.8535C84.4251 28.8535 85.2606 29.15 85.962 29.7969C86.3979 30.1847 86.7205 30.5875 87.1728 31.6206L89.3705 30.1847C88.4243 28.1177 85.9412 26.4227 82.8502 26.4227C79.0612 26.4227 76.1976 29.2804 76.1976 32.5266C76.1976 33.9243 76.7434 35.2705 78.0528 36.5228C78.5103 36.9497 78.9055 37.2428 80.0852 37.815C80.8031 38.1472 81.5244 38.496 82.2457 38.8489L82.7187 39.0682C83.7073 39.5498 84.4251 40.3404 84.4251 41.4292C84.4251 42.6657 83.5516 43.5859 82.1125 43.5859C80.9016 43.5859 79.2117 42.5719 78.5466 40.8221L75.9321 42.3128ZM123.803 45.422H136.184V42.9132H129.206V37.1614H135.654V34.7655H129.226V29.3435H135.991V26.9476H123.803V45.422ZM139.575 45.4477H151.917V42.9771H145.016V26.9534H139.575V45.4477ZM107.953 45.422H120.316V42.9132H113.321V37.1614H119.786V34.7655H113.358V29.3435H120.127V26.9476H107.953V45.422ZM63.8577 19.1886C63.0948 18.1505 62.2421 16.2056 62.108 12.6545C62.108 9.40163 62.6218 7.38943 63.2747 5.94111L63.4996 5.42041C64.3515 3.59174 65.8771 2.64086 67.8058 2.64086C69.5104 2.64086 71.0802 3.65901 71.7089 4.94622L71.843 5.19702C72.7165 6.89199 73.3237 9.19734 73.3237 11.7502C73.3237 15.4814 72.5816 17.6066 72.0229 18.5782L71.7288 19.0557C70.966 20.4335 69.3963 21.3387 68.0056 21.3387H67.9398C66.5249 21.4051 65.0892 20.774 64.0574 19.4394L63.8577 19.1886ZM119.159 23.3235H125.943V0.648588H119.159V23.3235ZM40.4967 20.6104V13.015H42.7315C45.2067 13.015 47.2539 15.0272 47.2539 17.0593C47.2539 18.981 45.6513 20.6095 43.1302 20.6095L40.4967 20.6104ZM40.5174 10.3218V3.29028H43.1311C44.9706 3.29028 46.6182 4.76186 46.6182 6.88866C46.6182 9.12343 45.064 10.3218 43.6733 10.3218H40.5174Z" fill="#FF602F"/>
</svg>
