<svg width="82" height="54" viewBox="0 0 82 54" fill="none" xmlns="http://www.w3.org/2000/svg">
<path d="M81.6547 0.129549C81.7734 0.129549 81.8813 0.129549 82 0.118753V9.02519C81.8921 9.02519 81.7842 9.03598 81.6763 9.03598C76.9499 9.03598 72.2235 9.03598 67.497 9.03598H67.292V31.5018H57.2565V9.04678H46.962C46.7354 9.55418 46.5088 10.0616 46.3037 10.569C45.7534 11.886 45.2031 13.2139 44.6635 14.5418C44.124 15.8589 43.606 17.1867 43.0773 18.5038C42.6025 19.6913 42.1492 20.8896 41.6744 22.0772C41.0486 23.6317 40.4227 25.1971 39.786 26.7409C39.1602 28.2523 38.5235 29.7529 37.8976 31.2643C37.8221 31.437 37.7358 31.5018 37.5415 31.5018C36.4301 31.5018 35.3186 31.5126 34.2071 31.5126C33.4841 31.5126 32.7719 31.5018 32.049 31.5018C31.8871 31.5018 31.8116 31.4802 31.7468 31.2967C31.2073 29.8609 30.6353 28.4358 30.085 27C29.5455 25.5966 29.0167 24.1931 28.488 22.7897C28.0455 21.613 27.6139 20.4362 27.1715 19.2595C26.6643 17.9316 26.1463 16.6038 25.6284 15.2759C25.5205 14.9844 25.4126 14.7037 25.2723 14.4014C24.7975 15.5134 24.3766 16.6577 23.9558 17.7805C23.5241 18.9248 23.0925 20.0584 22.6609 21.2027C22.2292 22.3471 21.8084 23.4914 21.3768 24.6357C20.9451 25.7801 20.5135 26.9244 20.0926 28.058C19.661 29.2023 19.2402 30.3467 18.8193 31.4802H12.9599C12.7009 30.8109 12.4311 30.1415 12.1721 29.4722C11.87 28.6841 11.5678 27.8852 11.2657 27.0972C10.8233 25.9312 10.37 24.7653 9.91683 23.6102C9.50678 22.5414 9.08593 21.4726 8.66509 20.4038C8.22266 19.2703 7.79103 18.1259 7.35939 16.9924C6.91696 15.8481 6.48533 14.7145 6.0429 13.581C5.62206 12.4906 5.20121 11.4002 4.79116 10.3207C4.31636 9.07917 3.83077 7.84846 3.35597 6.61775C2.87038 5.36545 2.39558 4.10236 1.90999 2.85006C1.57547 1.9972 1.24095 1.13355 0.917226 0.280688C0.884853 0.194323 0.874062 0.0971611 0.85248 0H9.75497C9.77655 0.0755698 9.80892 0.15114 9.8413 0.22671C10.478 1.63015 11.1038 3.03359 11.7405 4.42623C12.3879 5.86205 13.0462 7.29788 13.6936 8.7445C14.2871 10.0616 14.8806 11.3894 15.4741 12.7065C15.5821 12.9332 15.69 13.1599 15.8087 13.4082C15.8518 13.3435 15.8626 13.3111 15.8842 13.2787C16.0892 12.7821 16.2835 12.2747 16.4885 11.7781C17.1359 10.2343 17.7942 8.69052 18.4524 7.14674C18.8517 6.20752 19.251 5.2575 19.6502 4.31827C20.0279 3.42223 20.4164 2.53699 20.8048 1.64094C21.0422 1.09036 21.2904 0.539784 21.5386 0H29.5347C29.7397 0.485806 29.9555 0.971611 30.1713 1.45742C30.5814 2.40744 31.0022 3.34666 31.4123 4.29668C31.8547 5.30068 32.2971 6.30468 32.7396 7.29788C33.2144 8.37745 33.7 9.45702 34.1748 10.5474C34.4877 11.2491 34.7898 11.9616 35.092 12.6633C35.2431 12.998 35.3833 13.3327 35.5668 13.7213C37.5307 9.14394 39.4623 4.63135 41.3939 0.107957H41.6744C55.012 0.129548 68.3279 0.129549 81.6547 0.129549ZM81.0288 34.0496C54.1163 34.0496 27.2038 34.0496 0.291354 34.0496C0.194236 34.0496 0.097118 34.0496 0 34.0604V42.6969C0.1187 42.6969 0.226608 42.6969 0.345308 42.6969C27.3765 42.6969 54.4185 42.6969 81.4497 42.6969H81.7302C81.8058 42.3407 81.7842 34.2655 81.7086 34.0604H81.0288V34.0496ZM8.85932 51.2255C8.83774 51.2255 8.82695 51.2147 8.80537 51.2147C8.21187 49.4118 7.60758 47.609 7.00329 45.8061H5.97816C5.39545 47.609 4.82353 49.4226 4.24082 51.2255C4.21924 51.2255 4.20845 51.2147 4.18687 51.2147C3.60416 49.4442 3.02145 47.6737 2.42795 45.914H0.625872C0.647454 46.022 0.658244 46.1084 0.690617 46.1839C0.992762 47.0476 1.3057 47.922 1.60784 48.7857C1.98552 49.876 2.36321 50.9556 2.74089 52.046C2.9675 52.6937 3.1941 53.3415 3.42071 54H4.70483C4.89907 53.4062 5.08251 52.8233 5.26596 52.2295C5.47098 51.6034 5.66522 50.988 5.87025 50.3619C6.03211 49.8653 6.18318 49.3794 6.36663 48.8181C6.53928 49.3039 6.67956 49.7249 6.83064 50.1459C7.02487 50.7181 7.21911 51.3011 7.41334 51.8732C7.63995 52.5426 7.87735 53.2119 8.10396 53.8812C8.11475 53.9136 8.11475 53.946 8.11475 53.9892H9.45282C9.4852 53.8704 9.50678 53.7517 9.54994 53.6329C9.99237 52.4346 10.4456 51.2471 10.888 50.0596C11.2981 48.9368 11.7081 47.8249 12.129 46.7021C12.2261 46.443 12.3124 46.1947 12.4095 45.914H10.5751C9.99237 47.6953 9.45282 49.4658 8.85932 51.2255ZM42.5701 50.3403C42.5809 50.3511 42.5917 50.3619 42.5917 50.3726C42.624 51.3982 42.3758 52.3267 41.6636 53.0824C41.2104 53.5682 40.6277 53.8273 39.9695 53.946C39.9047 53.9568 39.8292 53.9784 39.7644 53.9892H38.5882C38.3185 53.9028 38.0487 53.8273 37.7897 53.7301C36.8833 53.3523 36.2682 52.6937 35.9337 51.7761C35.4049 50.3187 35.8797 48.6777 37.0775 47.7709C37.5955 47.3822 38.1782 47.1555 38.8148 47.0908C39.7537 46.9828 40.6493 47.1447 41.437 47.7169C41.7608 47.9544 42.009 48.2351 42.2356 48.6453C41.8147 48.8505 41.4047 49.0556 41.0054 49.2499C40.8435 49.0556 40.7033 48.8613 40.5306 48.6993C39.786 47.9868 38.4803 48.0732 37.8329 48.8828C37.261 49.5846 37.0991 50.3942 37.3257 51.2579C37.5199 51.992 37.9624 52.5642 38.7285 52.7801C39.581 53.0176 40.4766 52.7153 40.8651 51.8193C40.9191 51.6897 40.9299 51.5494 40.973 51.3766H39.4515V50.3403H42.5701ZM57.8824 47.2527C57.8931 47.3175 57.9039 47.3822 57.9039 47.447C57.9039 48.7317 57.9147 50.0272 57.9039 51.3119C57.9039 51.938 57.7637 52.5426 57.386 53.0608C57.0622 53.5034 56.6414 53.7733 56.1126 53.892C56.0371 53.9136 55.9616 53.9568 55.886 53.9892H54.6019C54.3861 53.9244 54.1703 53.8812 53.9653 53.8057C53.2315 53.5466 52.7783 53.0284 52.584 52.2943C52.4977 51.9812 52.4437 51.6465 52.433 51.3227C52.4114 50.0056 52.4222 48.6885 52.4222 47.3822C52.4222 47.3499 52.433 47.3175 52.433 47.2527H53.8358C53.8358 47.3499 53.8466 47.4578 53.8466 47.5658C53.8466 48.6561 53.8358 49.7465 53.8466 50.8477C53.8466 51.2147 53.8681 51.5818 53.9545 51.9272C54.1379 52.6721 54.6343 52.9636 55.422 52.8449C55.886 52.7801 56.1882 52.4886 56.2961 52.0352C56.3716 51.7005 56.4256 51.3551 56.4256 51.0096C56.4472 49.8437 56.4364 48.6777 56.4364 47.5226V47.2419H57.8824M33.6028 47.2527H35.0596V53.9676C34.7251 53.9676 34.4014 53.9784 34.0776 53.9568C34.0021 53.9568 33.9158 53.8489 33.8618 53.7733C33.1928 52.9744 32.5238 52.1755 31.8547 51.3874C31.3475 50.7829 30.8404 50.1891 30.3332 49.5846C30.3008 49.5414 30.2685 49.4874 30.2361 49.4334C30.2037 49.4442 30.1821 49.4658 30.1498 49.4766V53.8165H28.7038V47.0584C29.0275 47.0584 29.3512 47.0476 29.675 47.0692C29.7397 47.0692 29.8152 47.1447 29.8584 47.1987C30.4735 47.9328 31.0886 48.6561 31.6929 49.3902C32.2756 50.0812 32.8691 50.7829 33.4518 51.4738C33.4841 51.517 33.5057 51.5602 33.5273 51.6034C33.5489 51.5926 33.5813 51.571 33.6028 51.5602V47.2527ZM69.2883 47.2635H70.7127V53.9568C70.3782 53.9568 70.0545 53.9568 69.7308 53.9568C69.6876 53.9568 69.6336 53.892 69.5905 53.8489C68.8135 52.9312 68.0366 52.0136 67.2704 51.096C66.8496 50.5994 66.4287 50.1028 66.0079 49.5954C65.9539 49.5414 65.9108 49.4766 65.8137 49.3686V53.8165H64.3785V47.0692C64.7022 47.0692 65.0367 47.0584 65.3604 47.08C65.4144 47.08 65.4791 47.1555 65.5223 47.2095C66.6877 48.6022 67.8531 49.9948 69.0293 51.3874C69.0941 51.463 69.1588 51.5494 69.2236 51.6357C69.2452 51.6249 69.2775 51.6034 69.2991 51.5926V47.2635H69.2883ZM16.8446 47.2527H18.2582V53.8273H16.8554V50.9232H14.19V53.8273H12.7656V47.2527H14.1684V49.8221H16.8338V47.2527H16.8446ZM79.5936 51.0312C80.1656 50.9016 80.554 50.5562 80.7914 50.038C80.9533 49.6925 80.9533 49.3363 80.9425 48.9692C80.9317 48.6345 80.813 48.3323 80.6188 48.0624C80.2519 47.5658 79.7123 47.3391 79.1296 47.2959C78.3095 47.2419 77.4786 47.2527 76.6585 47.2419C76.6261 47.2419 76.5938 47.2527 76.5506 47.2635V53.8273H77.9966V51.2363C78.0721 51.3227 78.1153 51.3659 78.1369 51.409C78.644 52.1647 79.1512 52.9204 79.6584 53.6761C79.7447 53.8057 79.831 53.8597 79.9821 53.8489C80.2303 53.8381 80.4785 53.8489 80.7267 53.8489C80.9749 53.8489 81.2338 53.8489 81.536 53.8489C80.8346 52.8988 80.1656 52.0028 79.4857 51.096C79.5397 51.0528 79.5613 51.0312 79.5936 51.0312ZM78.5253 50.2539C78.3527 50.2755 78.1692 50.2539 77.975 50.2539V48.3215C78.3958 48.2891 78.7843 48.2783 79.1512 48.5158C79.3023 48.6129 79.4102 48.7533 79.4534 48.9368C79.6152 49.7033 79.3023 50.1567 78.5253 50.2539ZM62.2419 50.9448C63.2886 50.5022 63.6015 49.1635 63.0728 48.2135C62.7275 47.5982 62.134 47.3499 61.4865 47.2959C60.6772 47.2311 59.8571 47.2527 59.037 47.2419C58.9938 47.2419 58.9507 47.2635 58.9183 47.2743V53.8273H60.3427V51.2687C60.3643 51.2687 60.3751 51.2579 60.3966 51.2579C60.8499 51.938 61.3031 52.6182 61.7671 53.2983C61.8858 53.471 61.9721 53.7085 62.1448 53.7949C62.3282 53.892 62.5764 53.8381 62.7922 53.8489C63.1483 53.8489 63.4936 53.8489 63.9037 53.8489C63.2023 52.8988 62.5224 52.0028 61.8426 51.0852C61.9937 51.0312 62.1232 50.9988 62.2419 50.9448ZM61.3462 50.1459C61.0333 50.2647 60.7096 50.2863 60.3643 50.2431V48.2999C60.7851 48.2999 61.1952 48.2783 61.5621 48.5266C61.6592 48.6022 61.7563 48.7209 61.7994 48.8289C61.9721 49.4226 61.8318 49.9516 61.3462 50.1459ZM46.6706 45.9248H51.9258V47.2743H50.1777V53.8273H48.4187V47.2851H46.6598V45.9248H46.6706ZM71.781 47.2527H75.5794V48.3647H73.227C73.2162 48.8613 73.2162 49.3147 73.227 49.8005C73.9824 49.8545 74.7269 49.8113 75.4823 49.8221V50.9556H73.2378V52.7153H75.5794V53.8273H71.781V47.2527ZM21.2904 47.2527H25.6823V48.3539H24.204V53.8165H22.758V48.3647H21.2904V47.2527ZM19.3265 47.2527H20.7725V53.8165H19.3265V47.2527ZM26.2219 47.2527H27.6355V53.8273H26.2219V47.2527ZM43.3146 49.876H46.1527V51.0636H43.3146V49.876Z" fill="#FF602F"/>
</svg>
