<svg width="136" height="40" viewBox="0 0 136 40" fill="none" xmlns="http://www.w3.org/2000/svg">
<path fill-rule="evenodd" clip-rule="evenodd" d="M52.8634 0.226033H49.1361L42.7729 17.8799H46.5038L47.8181 14.0814H53.962L55.2763 17.8799H59.0054L52.8634 0.226033ZM53.0846 11.1748H48.6974L50.8892 4.69492L53.0846 11.1748Z" fill="#FF602F"/>
<path d="M62.9557 0.226033H59.2248V17.8799H62.7345V6.03557L69.5346 17.8799H73.2655V0.226033H69.7521V12.0686L62.9557 0.226033Z" fill="#FF602F"/>
<path fill-rule="evenodd" clip-rule="evenodd" d="M83.7947 0.226033H80.0637L73.9217 17.8799H77.4315L78.7458 14.0814H85.1126L86.2039 17.8799H89.9349L83.7947 0.226033ZM84.0122 11.1748H79.8462L81.8204 4.69492H82.038L84.0122 11.1748Z" fill="#FF602F"/>
<path d="M94.3238 0.226029H90.8141V17.8799H102.438V14.5264H94.3238V0.226029Z" fill="#FF602F"/>
<path fill-rule="evenodd" clip-rule="evenodd" d="M118.014 9.16378C118.011 3.97057 114.998 -0.0867925 109.896 0.00258499C104.756 -0.0849305 101.742 3.97057 101.782 9.16378C101.742 14.2434 104.756 18.2989 109.896 18.325C114.998 18.2989 118.011 14.2434 118.014 9.16378ZM114.284 9.16563C114.373 12.1076 113.145 15.0571 109.896 14.9752C106.608 15.0552 105.379 12.1058 105.29 9.16563C105.379 6.11004 106.608 3.16058 109.896 3.13265C113.145 3.16058 114.373 6.11004 114.284 9.16563Z" fill="#FF602F"/>
<path d="M127.447 18.325C129.09 18.2989 130.757 17.636 132.05 15.8671L132.492 17.8781H134.686V8.49347H127.666V11.1748H131.392C131.22 13.7034 129.852 15.0553 127.447 14.9733C124.224 15.0553 122.996 12.1058 123.056 9.1638C122.994 6.1082 124.222 3.15875 127.447 3.13082C129.207 3.15875 130.575 4.16797 130.957 6.03372H134.466C134.073 2.12718 130.874 -0.0867719 127.447 0.0026056C122.371 -0.0867719 119.354 3.97059 119.329 9.1638C119.353 14.2434 122.371 18.2989 127.447 18.325Z" fill="#FF602F"/>
<path fill-rule="evenodd" clip-rule="evenodd" d="M49.7924 22.1235H42.7729V39.7774H49.7924C54.8833 39.6676 57.3401 35.8821 57.2505 30.8378C57.3401 24.9687 54.1174 22.1179 49.7924 22.1235ZM49.573 36.4258H46.2827V25.2517H48.9168C52.5417 25.3616 53.7006 27.624 53.7408 31.0631C53.7006 35.0479 51.6844 36.4221 49.573 36.4258Z" fill="#FF602F"/>
<path d="M70.4138 22.1235H58.128V39.7756H70.635V36.4258H61.6395V32.1766H69.7521V29.0521H61.6395V25.2517H70.4138V22.1235Z" fill="#FF602F"/>
<path d="M76.9928 39.7756H81.1587L86.6427 22.1235H82.6942L78.967 34.4129L75.2361 22.1235H71.5088L76.9928 39.7756Z" fill="#FF602F"/>
<path d="M90.8141 39.7756H87.3044V22.1235H90.8141V39.7756Z" fill="#FF602F"/>
<path d="M100.029 25.0283C101.831 24.9463 103.411 26.2721 103.539 27.933V27.9312H107.266C106.723 23.9613 103.667 21.699 100.029 21.6748C94.907 21.699 91.8926 25.7545 91.9109 31.0613C91.8926 36.0292 94.9051 40.0847 100.029 39.9971C104.082 40.0847 106.93 37.2804 107.266 32.8469H103.756C103.502 35.2173 102.25 36.8373 100.029 36.8689C96.7587 36.8391 95.5303 33.8897 95.6382 31.0613C95.5303 27.8939 96.7587 24.9445 100.029 25.0283Z" fill="#FF602F"/>
<path d="M121.082 22.1235H108.578V39.7756H121.303V36.4258H112.309V32.1766H120.429V29.0521H112.309V25.2517H121.082V22.1235Z" fill="#FF602F"/>
<path d="M129.202 37.0942C127.209 37.0868 125.493 36.1763 125.474 33.7407H121.965C121.926 38.1686 125.354 40.0847 128.984 39.9971C133.516 40.0847 135.899 37.677 136 34.4129C135.907 30.7575 132.705 29.7972 131.26 29.3639C131.148 29.3304 131.047 29.3001 130.958 29.2718L130.734 29.2143C126.809 28.2073 126.05 28.0125 126.131 26.5905C126.048 25.2145 127.394 24.6968 128.54 24.8048C130.289 24.6968 131.704 25.2387 131.832 27.2608H135.342C135.342 23.2966 132.167 21.699 128.761 21.6748C125.723 21.699 122.524 23.4195 122.621 27.0393C122.526 30.3034 125.007 31.3089 127.449 31.9532C127.838 32.0697 128.227 32.1757 128.608 32.2792C130.621 32.8272 132.363 33.3013 132.273 34.8598C132.379 36.6939 130.43 37.0868 129.202 37.0942Z" fill="#FF602F"/>
<path fill-rule="evenodd" clip-rule="evenodd" d="M36.8521 39.7756H0V0.672905H36.8521V39.7756ZM30.7082 20.1125L8.11622 33.7407V6.70773L30.7082 20.1125Z" fill="#FF602F"/>
</svg>
